  0
SECTION
  2
HEADER
  9
$ACADVER
  1
AC1018
  9
$ACADMAINTVER
 70
    39
  9
$DWGCODEPAGE
  3
ANSI_1252
  9
$LASTSAVEDBY
  1
fottrem
  9
$INSBASE
 10
0.0
 20
0.0
 30
0.0
  9
$EXTMIN
 10
0.0
 20
0.0
 30
0.0
  9
$EXTMAX
 10
16.75
 20
5.755000000000019
 30
0.0
  9
$LIMMIN
 10
0.0
 20
0.0
  9
$LIMMAX
 10
0.0
 20
0.0
  9
$ORTHOMODE
 70
     0
  9
$REGENMODE
 70
     1
  9
$FILLMODE
 70
     1
  9
$QTEXTMODE
 70
     0
  9
$MIRRTEXT
 70
     1
  9
$LTSCALE
 40
1.0
  9
$ATTMODE
 70
     1
  9
$TEXTSIZE
 40
0.1
  9
$TRACEWID
 40
0.05
  9
$TEXTSTYLE
  7
Standard
  9
$CLAYER
  8
0
  9
$CELTYPE
  6
Continuous
  9
$CECOLOR
 62
   256
  9
$CELTSCALE
 40
1.0
  9
$DISPSILH
 70
     0
  9
$DIMSCALE
 40
1.0
  9
$DIMASZ
 40
0.0
  9
$DIMEXO
 40
0.0
  9
$DIMDLI
 40
0.38
  9
$DIMRND
 40
0.0
  9
$DIMDLE
 40
0.0
  9
$DIMEXE
 40
0.18
  9
$DIMTP
 40
0.0
  9
$DIMTM
 40
0.0
  9
$DIMTXT
 40
0.1377952756
  9
$DIMCEN
 40
0.09
  9
$DIMTSZ
 40
0.0
  9
$DIMTOL
 70
     0
  9
$DIMLIM
 70
     0
  9
$DIMTIH
 70
     1
  9
$DIMTOH
 70
     1
  9
$DIMSE1
 70
     0
  9
$DIMSE2
 70
     0
  9
$DIMTAD
 70
     0
  9
$DIMZIN
 70
     0
  9
$DIMBLK
  1

  9
$DIMASO
 70
     1
  9
$DIMSHO
 70
     1
  9
$DIMPOST
  1

  9
$DIMAPOST
  1

  9
$DIMALT
 70
     0
  9
$DIMALTD
 70
     2
  9
$DIMALTF
 40
25.4
  9
$DIMLFAC
 40
1.0
  9
$DIMTOFL
 70
     0
  9
$DIMTVP
 40
0.0
  9
$DIMTIX
 70
     0
  9
$DIMSOXD
 70
     0
  9
$DIMSAH
 70
     0
  9
$DIMBLK1
  1

  9
$DIMBLK2
  1

  9
$DIMSTYLE
  2
Standard
  9
$DIMCLRD
 70
     0
  9
$DIMCLRE
 70
     0
  9
$DIMCLRT
 70
     0
  9
$DIMTFAC
 40
1.0
  9
$DIMGAP
 40
0.0
  9
$DIMJUST
 70
     0
  9
$DIMSD1
 70
     0
  9
$DIMSD2
 70
     0
  9
$DIMTOLJ
 70
     1
  9
$DIMTZIN
 70
     0
  9
$DIMALTZ
 70
     0
  9
$DIMALTTZ
 70
     0
  9
$DIMUPT
 70
     0
  9
$DIMDEC
 70
     4
  9
$DIMTDEC
 70
     4
  9
$DIMALTU
 70
     2
  9
$DIMALTTD
 70
     2
  9
$DIMTXSTY
  7
Standard
  9
$DIMAUNIT
 70
     0
  9
$DIMADEC
 70
     0
  9
$DIMALTRND
 40
0.0
  9
$DIMAZIN
 70
     0
  9
$DIMDSEP
 70
     0
  9
$DIMATFIT
 70
     3
  9
$DIMFRAC
 70
     0
  9
$DIMLDRBLK
  1

  9
$DIMLUNIT
 70
     2
  9
$DIMLWD
 70
     0
  9
$DIMLWE
 70
     0
  9
$DIMTMOVE
 70
     0
  9
$LUNITS
 70
     2
  9
$LUPREC
 70
     4
  9
$SKETCHINC
 40
0.1
  9
$FILLETRAD
 40
0.0
  9
$AUNITS
 70
     0
  9
$AUPREC
 70
     2
  9
$MENU
  1
.
  9
$ELEVATION
 40
0.0
  9
$PELEVATION
 40
0.0
  9
$THICKNESS
 40
0.0
  9
$LIMCHECK
 70
     0
  9
$CHAMFERA
 40
0.0
  9
$CHAMFERB
 40
0.0
  9
$CHAMFERC
 40
0.0
  9
$CHAMFERD
 40
0.0
  9
$SKPOLY
 70
     0
  9
$TDCREATE
 40
2453353.425459155
  9
$TDUCREATE
 40
2453353.717125822
  9
$TDUPDATE
 40
2454972.85871184
  9
$TDUUPDATE
 40
2454973.150378507
  9
$TDINDWG
 40
1.079259213
  9
$TDUSRTIMER
 40
1.0634027083
  9
$USRTIMER
 70
     1
  9
$ANGBASE
 50
0.0
  9
$ANGDIR
 70
     0
  9
$PDMODE
 70
     0
  9
$PDSIZE
 40
-1.0
  9
$PLINEWID
 40
0.0
  9
$SPLFRAME
 70
     0
  9
$SPLINETYPE
 70
     6
  9
$SPLINESEGS
 70
     8
  9
$HANDSEED
  5
68B
  9
$SURFTAB1
 70
     6
  9
$SURFTAB2
 70
     6
  9
$SURFTYPE
 70
     6
  9
$SURFU
 70
     6
  9
$SURFV
 70
     6
  9
$UCSBASE
  2

  9
$UCSNAME
  2

  9
$UCSORG
 10
0.0
 20
0.0
 30
0.0
  9
$UCSXDIR
 10
1.0
 20
0.0
 30
0.0
  9
$UCSYDIR
 10
0.0
 20
1.0
 30
0.0
  9
$UCSORTHOREF
  2

  9
$UCSORTHOVIEW
 70
     0
  9
$UCSORGTOP
 10
0.0
 20
0.0
 30
0.0
  9
$UCSORGBOTTOM
 10
0.0
 20
0.0
 30
0.0
  9
$UCSORGLEFT
 10
0.0
 20
0.0
 30
0.0
  9
$UCSORGRIGHT
 10
0.0
 20
0.0
 30
0.0
  9
$UCSORGFRONT
 10
0.0
 20
0.0
 30
0.0
  9
$UCSORGBACK
 10
0.0
 20
0.0
 30
0.0
  9
$PUCSBASE
  2

  9
$PUCSNAME
  2

  9
$PUCSORG
 10
0.0
 20
0.0
 30
0.0
  9
$PUCSXDIR
 10
1.0
 20
0.0
 30
0.0
  9
$PUCSYDIR
 10
0.0
 20
1.0
 30
0.0
  9
$PUCSORTHOREF
  2

  9
$PUCSORTHOVIEW
 70
     0
  9
$PUCSORGTOP
 10
0.0
 20
0.0
 30
0.0
  9
$PUCSORGBOTTOM
 10
0.0
 20
0.0
 30
0.0
  9
$PUCSORGLEFT
 10
0.0
 20
0.0
 30
0.0
  9
$PUCSORGRIGHT
 10
0.0
 20
0.0
 30
0.0
  9
$PUCSORGFRONT
 10
0.0
 20
0.0
 30
0.0
  9
$PUCSORGBACK
 10
0.0
 20
0.0
 30
0.0
  9
$USERI1
 70
     0
  9
$USERI2
 70
     0
  9
$USERI3
 70
     0
  9
$USERI4
 70
     0
  9
$USERI5
 70
     0
  9
$USERR1
 40
0.0
  9
$USERR2
 40
0.0
  9
$USERR3
 40
0.0
  9
$USERR4
 40
0.0
  9
$USERR5
 40
0.0
  9
$WORLDVIEW
 70
     1
  9
$SHADEDGE
 70
     3
  9
$SHADEDIF
 70
    70
  9
$TILEMODE
 70
     1
  9
$MAXACTVP
 70
    16
  9
$PINSBASE
 10
0.0
 20
0.0
 30
0.0
  9
$PLIMCHECK
 70
     0
  9
$PEXTMIN
 10
0.0
 20
0.0
 30
0.0
  9
$PEXTMAX
 10
0.0
 20
0.0
 30
0.0
  9
$PLIMMIN
 10
0.0
 20
0.0
  9
$PLIMMAX
 10
0.0
 20
0.0
  9
$UNITMODE
 70
     0
  9
$VISRETAIN
 70
     0
  9
$PLINEGEN
 70
     1
  9
$PSLTSCALE
 70
     1
  9
$TREEDEPTH
 70
  3020
  9
$CMLSTYLE
  2
Standard
  9
$CMLJUST
 70
     0
  9
$CMLSCALE
 40
1.0
  9
$PROXYGRAPHICS
 70
     0
  9
$MEASUREMENT
 70
     0
  9
$CELWEIGHT
370
     0
  9
$ENDCAPS
280
     0
  9
$JOINSTYLE
280
     0
  9
$LWDISPLAY
290
     0
  9
$INSUNITS
 70
     0
  9
$HYPERLINKBASE
  1

  9
$STYLESHEET
  1

  9
$XEDIT
290
     0
  9
$CEPSNTYPE
380
     0
  9
$PSTYLEMODE
290
     1
  9
$FINGERPRINTGUID
  2

  9
$VERSIONGUID
  2

  9
$EXTNAMES
290
     1
  9
$PSVPSCALE
 40
0.0
  9
$OLESTARTUP
290
     0
  9
$SORTENTS
280
   127
  9
$INDEXCTL
280
     0
  9
$HIDETEXT
280
     1
  9
$XCLIPFRAME
290
     0
  9
$HALOGAP
280
     0
  9
$OBSCOLOR
 70
   257
  9
$OBSLTYPE
280
     0
  9
$INTERSECTIONDISPLAY
280
     0
  9
$INTERSECTIONCOLOR
 70
   257
  9
$DIMASSOC
280
     2
  9
$PROJECTNAME
  1

  0
ENDSEC
  0
SECTION
  2
CLASSES
  0
CLASS
  1
ACDBDICTIONARYWDFLT
  2
AcDbDictionaryWithDefault
  3
ObjectDBX Classes
 90
        0
 91
        3
280
     0
281
     0
  0
CLASS
  1
ACDBPLACEHOLDER
  2
AcDbPlaceHolder
  3
ObjectDBX Classes
 90
        0
 91
        1
280
     0
281
     0
  0
CLASS
  1
LAYOUT
  2
AcDbLayout
  3
ObjectDBX Classes
 90
        0
 91
        1
280
     0
281
     0
  0
CLASS
  1
DICTIONARYVAR
  2
AcDbDictionaryVar
  3
ObjectDBX Classes
 90
        0
 91
        3
280
     0
281
     0
  0
CLASS
  1
TABLESTYLE
  2
AcDbTableStyle
  3
ObjectDBX Classes
 90
     2047
 91
        3
280
     0
281
     0
  0
CLASS
  1
WIPEOUTVARIABLES
  2
AcDbWipeoutVariables
  3
WipeOut|AutoCAD Express Tool|expresstools@autodesk.com
 90
        0
 91
        3
280
     0
281
     0
  0
ENDSEC
  0
SECTION
  2
TABLES
  0
TABLE
  2
VPORT
  5
8
330
0
100
AcDbSymbolTable
 70
     2
  0
VPORT
  5
97
330
8
100
AcDbSymbolTableRecord
100
AcDbViewportTableRecord
  2
*ACTIVE
 70
     0
 10
0.0
 20
0.0
 11
1.0
 21
1.0
 12
8.375
 22
2.5
 13
0.0
 23
0.0
 14
1.0
 24
1.0
 15
0.0
 25
0.0
 16
0.0
 26
0.0
 36
1.0
 17
0.0
 27
0.0
 37
0.0
 40
7.805607028753996
 41
0.7727272727
 42
50.0
 43
0.0
 44
0.0
 50
0.0
 51
0.0
 71
    16
 72
  2000
 73
     1
 74
     1
 75
     0
 76
     0
 77
     0
 78
     0
281
     0
 65
     0
110
0.0
120
0.0
130
0.0
111
1.0
121
0.0
131
0.0
112
0.0
122
1.0
132
0.0
 79
     0
146
0.0
  0
ENDTAB
  0
TABLE
  2
LTYPE
  5
5
330
0
100
AcDbSymbolTable
 70
     6
  0
LTYPE
  5
14
330
5
100
AcDbSymbolTableRecord
100
AcDbLinetypeTableRecord
  2
ByBlock
 70
     0
  3

 72
    65
 73
     0
 40
0.0
  0
LTYPE
  5
15
330
5
100
AcDbSymbolTableRecord
100
AcDbLinetypeTableRecord
  2
ByLayer
 70
     0
  3

 72
    65
 73
     0
 40
0.0
  0
LTYPE
  5
16
330
5
100
AcDbSymbolTableRecord
100
AcDbLinetypeTableRecord
  2
Continuous
 70
     0
  3
Solid line
 72
    65
 73
     0
 40
0.0
  0
LTYPE
  5
617
330
5
100
AcDbSymbolTableRecord
100
AcDbLinetypeTableRecord
  2
HIDDEN
 70
     0
  3
Hidden __ __ __ __ __ __ __ __ __ __ __ __ __ __
 72
    65
 73
     2
 40
0.075
 49
0.05
 74
     4
 75
     0
340
0
 46
1.0
 50
0.0
 44
0.0
 45
0.0
 49
-0.025
 74
     4
 75
     0
340
0
 46
1.0
 50
0.0
 44
0.0
 45
0.0
  0
LTYPE
  5
618
330
5
100
AcDbSymbolTableRecord
100
AcDbLinetypeTableRecord
  2
PHANTOM
 70
     0
  3
Phantom ______  __  __  ______  __  __  ______
 72
    65
 73
     6
 40
0.4999999999999999
 49
0.25
 74
     4
 75
     0
340
0
 46
1.0
 50
0.0
 44
0.0
 45
0.0
 49
-0.05
 74
     4
 75
     0
340
0
 46
1.0
 50
0.0
 44
0.0
 45
0.0
 49
0.05
 74
     4
 75
     0
340
0
 46
1.0
 50
0.0
 44
0.0
 45
0.0
 49
-0.05
 74
     4
 75
     0
340
0
 46
1.0
 50
0.0
 44
0.0
 45
0.0
 49
0.05
 74
     4
 75
     0
340
0
 46
1.0
 50
0.0
 44
0.0
 45
0.0
 49
-0.05
 74
     4
 75
     0
340
0
 46
1.0
 50
0.0
 44
0.0
 45
0.0
  0
LTYPE
  5
619
330
5
100
AcDbSymbolTableRecord
100
AcDbLinetypeTableRecord
  2
CENTER
 70
     0
  3
Center ____ _ ____ _ ____ _ ____ _ ____ _ ____
 72
    65
 73
     4
 40
0.4
 49
0.25
 74
     4
 75
     0
340
0
 46
1.0
 50
0.0
 44
0.0
 45
0.0
 49
-0.05
 74
     4
 75
     0
340
0
 46
1.0
 50
0.0
 44
0.0
 45
0.0
 49
0.05
 74
     4
 75
     0
340
0
 46
1.0
 50
0.0
 44
0.0
 45
0.0
 49
-0.05
 74
     4
 75
     0
340
0
 46
1.0
 50
0.0
 44
0.0
 45
0.0
  0
LTYPE
  5
61A
330
5
100
AcDbSymbolTableRecord
100
AcDbLinetypeTableRecord
  2
CENTERX2
 70
     0
  3
Center (2x) ________  __  ________  __  _____
 72
    65
 73
     4
 40
0.7999999999999999
 49
0.5
 74
     4
 75
     0
340
0
 46
1.0
 50
0.0
 44
0.0
 45
0.0
 49
-0.1
 74
     4
 75
     0
340
0
 46
1.0
 50
0.0
 44
0.0
 45
0.0
 49
0.1
 74
     4
 75
     0
340
0
 46
1.0
 50
0.0
 44
0.0
 45
0.0
 49
-0.1
 74
     4
 75
     0
340
0
 46
1.0
 50
0.0
 44
0.0
 45
0.0
  0
LTYPE
  5
61B
330
5
100
AcDbSymbolTableRecord
100
AcDbLinetypeTableRecord
  2
DOT2
 70
     0
  3
Dot (.5x) ........................................
 72
    65
 73
     2
 40
0.025
 49
0.0
 74
     4
 75
     0
340
0
 46
1.0
 50
0.0
 44
0.0
 45
0.0
 49
-0.025
 74
     4
 75
     0
340
0
 46
1.0
 50
0.0
 44
0.0
 45
0.0
  0
ENDTAB
  0
TABLE
  2
LAYER
  5
2
330
0
100
AcDbSymbolTable
 70
     3
  0
LAYER
  5
10
330
2
100
AcDbSymbolTableRecord
100
AcDbLayerTableRecord
  2
0
 70
     0
 62
     7
  6
Continuous
370
    -3
390
F
  0
LAYER
  5
23
330
2
100
AcDbSymbolTableRecord
100
AcDbLayerTableRecord
  2
DEFPOINTS
 70
     0
 62
     7
  6
Continuous
290
     0
370
    -3
390
F
  0
LAYER
  5
24
330
2
100
AcDbSymbolTableRecord
100
AcDbLayerTableRecord
  2
FORMAT
 70
     0
 62
     7
  6
Continuous
370
    -3
390
F
  0
ENDTAB
  0
TABLE
  2
STYLE
  5
3
330
0
100
AcDbSymbolTable
 70
     2
  0
STYLE
  5
11
330
3
100
AcDbSymbolTableRecord
100
AcDbTextStyleTableRecord
  2
Standard
 70
     0
 40
0.0
 41
1.0
 50
0.0
 71
     0
 42
0.2
  3
TXT
  4

  0
STYLE
  5
7F
330
3
100
AcDbSymbolTableRecord
100
AcDbTextStyleTableRecord
  2
SLDTEXTSTYLE0
 70
     0
 40
0.0
 41
0.75
 50
0.0
 71
     0
 42
0.2
  3
TXT
  4

  0
ENDTAB
  0
TABLE
  2
VIEW
  5
6
330
0
100
AcDbSymbolTable
 70
     0
  0
ENDTAB
  0
TABLE
  2
UCS
  5
7
330
0
100
AcDbSymbolTable
 70
     0
  0
ENDTAB
  0
TABLE
  2
APPID
  5
9
330
0
100
AcDbSymbolTable
 70
     1
  0
APPID
  5
12
330
9
100
AcDbSymbolTableRecord
100
AcDbRegAppTableRecord
  2
ACAD
 70
     0
  0
ENDTAB
  0
TABLE
  2
DIMSTYLE
  5
A
330
0
100
AcDbSymbolTable
 70
     1
100
AcDbDimStyleTable
  0
DIMSTYLE
105
27
330
A
100
AcDbSymbolTableRecord
100
AcDbDimStyleTableRecord
  2
Standard
 70
     0
278
     0
340
11
  0
ENDTAB
  0
TABLE
  2
BLOCK_RECORD
  5
1
330
0
100
AcDbSymbolTable
 70
    55
  0
BLOCK_RECORD
  5
1F
330
1
100
AcDbSymbolTableRecord
100
AcDbBlockTableRecord
  2
*Model_Space
340
22
  0
BLOCK_RECORD
  5
73
330
1
100
AcDbSymbolTableRecord
100
AcDbBlockTableRecord
  2
*Paper_Space
340
74
  0
BLOCK_RECORD
  5
9C
330
1
100
AcDbSymbolTableRecord
100
AcDbBlockTableRecord
  2
NOTE28
340
0
  0
BLOCK_RECORD
  5
A4
330
1
100
AcDbSymbolTableRecord
100
AcDbBlockTableRecord
  2
NOTE29
340
0
102
{BLKREFS
331
A7
102
}
  0
BLOCK_RECORD
  5
A8
330
1
100
AcDbSymbolTableRecord
100
AcDbBlockTableRecord
  2
NOTE30
340
0
102
{BLKREFS
331
AB
102
}
  0
BLOCK_RECORD
  5
AC
330
1
100
AcDbSymbolTableRecord
100
AcDbBlockTableRecord
  2
NOTE31
340
0
102
{BLKREFS
331
AF
102
}
  0
BLOCK_RECORD
  5
B0
330
1
100
AcDbSymbolTableRecord
100
AcDbBlockTableRecord
  2
NOTE32
340
0
102
{BLKREFS
331
B3
102
}
  0
BLOCK_RECORD
  5
B4
330
1
100
AcDbSymbolTableRecord
100
AcDbBlockTableRecord
  2
NOTE33
340
0
102
{BLKREFS
331
B7
102
}
  0
BLOCK_RECORD
  5
B8
330
1
100
AcDbSymbolTableRecord
100
AcDbBlockTableRecord
  2
NOTE34
340
0
102
{BLKREFS
331
BB
102
}
  0
BLOCK_RECORD
  5
BC
330
1
100
AcDbSymbolTableRecord
100
AcDbBlockTableRecord
  2
NOTE35
340
0
102
{BLKREFS
331
BF
102
}
  0
BLOCK_RECORD
  5
C0
330
1
100
AcDbSymbolTableRecord
100
AcDbBlockTableRecord
  2
NOTE36
340
0
102
{BLKREFS
331
C3
102
}
  0
BLOCK_RECORD
  5
C4
330
1
100
AcDbSymbolTableRecord
100
AcDbBlockTableRecord
  2
NOTE37
340
0
102
{BLKREFS
331
C7
102
}
  0
BLOCK_RECORD
  5
C8
330
1
100
AcDbSymbolTableRecord
100
AcDbBlockTableRecord
  2
NOTE38
340
0
102
{BLKREFS
331
CB
102
}
  0
BLOCK_RECORD
  5
CC
330
1
100
AcDbSymbolTableRecord
100
AcDbBlockTableRecord
  2
NOTE39
340
0
102
{BLKREFS
331
CF
102
}
  0
BLOCK_RECORD
  5
D0
330
1
100
AcDbSymbolTableRecord
100
AcDbBlockTableRecord
  2
NOTE40
340
0
102
{BLKREFS
331
D3
102
}
  0
BLOCK_RECORD
  5
D5
330
1
100
AcDbSymbolTableRecord
100
AcDbBlockTableRecord
  2
NOTE42
340
0
  0
BLOCK_RECORD
  5
E1
330
1
100
AcDbSymbolTableRecord
100
AcDbBlockTableRecord
  2
NOTE49
340
0
102
{BLKREFS
331
E4
102
}
  0
BLOCK_RECORD
  5
ED
330
1
100
AcDbSymbolTableRecord
100
AcDbBlockTableRecord
  2
NOTE58
340
0
102
{BLKREFS
331
F0
102
}
  0
BLOCK_RECORD
  5
F1
330
1
100
AcDbSymbolTableRecord
100
AcDbBlockTableRecord
  2
NOTE59
340
0
102
{BLKREFS
331
F4
102
}
  0
BLOCK_RECORD
  5
F7
330
1
100
AcDbSymbolTableRecord
100
AcDbBlockTableRecord
  2
NOTE62
340
0
  0
BLOCK_RECORD
  5
FD
330
1
100
AcDbSymbolTableRecord
100
AcDbBlockTableRecord
  2
NOTE63
340
0
  0
BLOCK_RECORD
  5
111
330
1
100
AcDbSymbolTableRecord
100
AcDbBlockTableRecord
  2
NOTE68
340
0
  0
BLOCK_RECORD
  5
190
330
1
100
AcDbSymbolTableRecord
100
AcDbBlockTableRecord
  2
SW_CENTERMARK0
340
0
  0
BLOCK_RECORD
  5
198
330
1
100
AcDbSymbolTableRecord
100
AcDbBlockTableRecord
  2
SW_CENTERMARK1
340
0
  0
BLOCK_RECORD
  5
1A0
330
1
100
AcDbSymbolTableRecord
100
AcDbBlockTableRecord
  2
SW_CENTERMARK2
340
0
  0
BLOCK_RECORD
  5
1A8
330
1
100
AcDbSymbolTableRecord
100
AcDbBlockTableRecord
  2
SW_CENTERMARK3
340
0
  0
BLOCK_RECORD
  5
1B0
330
1
100
AcDbSymbolTableRecord
100
AcDbBlockTableRecord
  2
SW_CENTERMARK4
340
0
  0
BLOCK_RECORD
  5
1B8
330
1
100
AcDbSymbolTableRecord
100
AcDbBlockTableRecord
  2
SW_CENTERMARK5
340
0
  0
BLOCK_RECORD
  5
1C0
330
1
100
AcDbSymbolTableRecord
100
AcDbBlockTableRecord
  2
SW_CENTERMARK6
340
0
  0
BLOCK_RECORD
  5
1C8
330
1
100
AcDbSymbolTableRecord
100
AcDbBlockTableRecord
  2
SW_CENTERMARK7
340
0
  0
BLOCK_RECORD
  5
1D0
330
1
100
AcDbSymbolTableRecord
100
AcDbBlockTableRecord
  2
SW_CENTERMARK8
340
0
  0
BLOCK_RECORD
  5
1D8
330
1
100
AcDbSymbolTableRecord
100
AcDbBlockTableRecord
  2
SW_CENTERMARK9
340
0
  0
BLOCK_RECORD
  5
1E0
330
1
100
AcDbSymbolTableRecord
100
AcDbBlockTableRecord
  2
SW_CENTERMARK10
340
0
  0
BLOCK_RECORD
  5
1E8
330
1
100
AcDbSymbolTableRecord
100
AcDbBlockTableRecord
  2
SW_CENTERMARK11
340
0
  0
BLOCK_RECORD
  5
1F4
330
1
100
AcDbSymbolTableRecord
100
AcDbBlockTableRecord
  2
SW_CENTERMARK12
340
0
  0
BLOCK_RECORD
  5
200
330
1
100
AcDbSymbolTableRecord
100
AcDbBlockTableRecord
  2
SW_CENTERMARK13
340
0
  0
BLOCK_RECORD
  5
21C
330
1
100
AcDbSymbolTableRecord
100
AcDbBlockTableRecord
  2
SW_CENTERMARK14
340
0
  0
BLOCK_RECORD
  5
238
330
1
100
AcDbSymbolTableRecord
100
AcDbBlockTableRecord
  2
SW_CENTERMARK15
340
0
  0
BLOCK_RECORD
  5
240
330
1
100
AcDbSymbolTableRecord
100
AcDbBlockTableRecord
  2
SW_CENTERMARK16
340
0
  0
BLOCK_RECORD
  5
248
330
1
100
AcDbSymbolTableRecord
100
AcDbBlockTableRecord
  2
SW_CENTERMARK17
340
0
  0
BLOCK_RECORD
  5
250
330
1
100
AcDbSymbolTableRecord
100
AcDbBlockTableRecord
  2
SW_CENTERMARK18
340
0
  0
BLOCK_RECORD
  5
258
330
1
100
AcDbSymbolTableRecord
100
AcDbBlockTableRecord
  2
SW_CENTERMARK19
340
0
  0
BLOCK_RECORD
  5
260
330
1
100
AcDbSymbolTableRecord
100
AcDbBlockTableRecord
  2
SW_CENTERMARK20
340
0
  0
BLOCK_RECORD
  5
268
330
1
100
AcDbSymbolTableRecord
100
AcDbBlockTableRecord
  2
SW_CENTERMARK21
340
0
  0
BLOCK_RECORD
  5
270
330
1
100
AcDbSymbolTableRecord
100
AcDbBlockTableRecord
  2
SW_CENTERMARK22
340
0
  0
BLOCK_RECORD
  5
278
330
1
100
AcDbSymbolTableRecord
100
AcDbBlockTableRecord
  2
SW_CENTERMARK23
340
0
  0
BLOCK_RECORD
  5
280
330
1
100
AcDbSymbolTableRecord
100
AcDbBlockTableRecord
  2
SW_CENTERMARK24
340
0
  0
BLOCK_RECORD
  5
288
330
1
100
AcDbSymbolTableRecord
100
AcDbBlockTableRecord
  2
SW_CENTERMARK25
340
0
  0
BLOCK_RECORD
  5
290
330
1
100
AcDbSymbolTableRecord
100
AcDbBlockTableRecord
  2
SW_CENTERMARK26
340
0
  0
BLOCK_RECORD
  5
298
330
1
100
AcDbSymbolTableRecord
100
AcDbBlockTableRecord
  2
SW_CENTERMARK27
340
0
  0
BLOCK_RECORD
  5
2A0
330
1
100
AcDbSymbolTableRecord
100
AcDbBlockTableRecord
  2
SW_CENTERMARK28
340
0
  0
BLOCK_RECORD
  5
2A8
330
1
100
AcDbSymbolTableRecord
100
AcDbBlockTableRecord
  2
SW_CENTERMARK29
340
0
  0
BLOCK_RECORD
  5
2B0
330
1
100
AcDbSymbolTableRecord
100
AcDbBlockTableRecord
  2
SW_CENTERMARK30
340
0
  0
BLOCK_RECORD
  5
2B8
330
1
100
AcDbSymbolTableRecord
100
AcDbBlockTableRecord
  2
SW_CENTERMARK31
340
0
  0
BLOCK_RECORD
  5
2C0
330
1
100
AcDbSymbolTableRecord
100
AcDbBlockTableRecord
  2
SW_CENTERMARK32
340
0
  0
BLOCK_RECORD
  5
2C8
330
1
100
AcDbSymbolTableRecord
100
AcDbBlockTableRecord
  2
SW_CENTERMARK33
340
0
  0
BLOCK_RECORD
  5
2D4
330
1
100
AcDbSymbolTableRecord
100
AcDbBlockTableRecord
  2
SW_CENTERMARK34
340
0
  0
ENDTAB
  0
ENDSEC
  0
SECTION
  2
BLOCKS
  0
BLOCK
  5
20
330
1F
100
AcDbEntity
  8
0
100
AcDbBlockBegin
  2
*Model_Space
 70
     0
 71
     0
 10
0.0
 20
0.0
 30
0.0
  3
*Model_Space
  1

  0
ENDBLK
  5
21
330
1F
100
AcDbEntity
  8
0
100
AcDbBlockEnd
  0
BLOCK
  5
75
330
73
100
AcDbEntity
 67
     1
  8
0
100
AcDbBlockBegin
  2
*Paper_Space
 70
     0
 71
     0
 10
0.0
 20
0.0
 30
0.0
  3
*Paper_Space
  1

  0
ENDBLK
  5
76
330
73
100
AcDbEntity
 67
     1
  8
0
100
AcDbBlockEnd
  0
BLOCK
  5
61D
330
9C
100
AcDbEntity
  8
0
100
AcDbBlockBegin
  2
NOTE28
 70
     0
 71
     0
 10
0.0
 20
0.0
 30
0.0
  3
NOTE28
  1

  0
MTEXT
  5
9E
330
9C
100
AcDbEntity
  8
0
 62
     7
100
AcDbMText
 10
0.0
 20
0.1393700787
 30
0.0
 40
0.1
 41
0.0
 71
     1
 72
     1
  1
SHEET 
  7
SLDTEXTSTYLE0
 73
     1
 44
1.0
  0
MTEXT
  5
9F
330
9C
100
AcDbEntity
  8
0
 62
     7
100
AcDbMText
 10
0.3854513872
 20
0.1393700787
 30
0.0
 40
0.1
 41
0.0
 71
     1
 72
     1
  1
1
  7
SLDTEXTSTYLE0
 73
     1
 44
1.0
  0
MTEXT
  5
A0
330
9C
100
AcDbEntity
  8
0
 62
     7
100
AcDbMText
 10
0.4531770915
 20
0.1393700787
 30
0.0
 40
0.1
 41
0.0
 71
     1
 72
     1
  1
 OF 
  7
SLDTEXTSTYLE0
 73
     1
 44
1.0
  0
MTEXT
  5
A1
330
9C
100
AcDbEntity
  8
0
 62
     7
100
AcDbMText
 10
0.7035242995
 20
0.1393700787
 30
0.0
 40
0.1
 41
0.0
 71
     1
 72
     1
  1
1
  7
SLDTEXTSTYLE0
 73
     1
 44
1.0
  0
ENDBLK
  5
61E
330
9C
100
AcDbEntity
  8
0
100
AcDbBlockEnd
  0
BLOCK
  5
61F
330
A4
100
AcDbEntity
  8
0
100
AcDbBlockBegin
  2
NOTE29
 70
     0
 71
     0
 10
0.0
 20
0.0
 30
0.0
  3
NOTE29
  1

  0
ENDBLK
  5
620
330
A4
100
AcDbEntity
  8
0
100
AcDbBlockEnd
  0
BLOCK
  5
621
330
A8
100
AcDbEntity
  8
0
100
AcDbBlockBegin
  2
NOTE30
 70
     0
 71
     0
 10
0.0
 20
0.0
 30
0.0
  3
NOTE30
  1

  0
ENDBLK
  5
622
330
A8
100
AcDbEntity
  8
0
100
AcDbBlockEnd
  0
BLOCK
  5
623
330
AC
100
AcDbEntity
  8
0
100
AcDbBlockBegin
  2
NOTE31
 70
     0
 71
     0
 10
0.0
 20
0.0
 30
0.0
  3
NOTE31
  1

  0
ENDBLK
  5
624
330
AC
100
AcDbEntity
  8
0
100
AcDbBlockEnd
  0
BLOCK
  5
625
330
B0
100
AcDbEntity
  8
0
100
AcDbBlockBegin
  2
NOTE32
 70
     0
 71
     0
 10
0.0
 20
0.0
 30
0.0
  3
NOTE32
  1

  0
ENDBLK
  5
626
330
B0
100
AcDbEntity
  8
0
100
AcDbBlockEnd
  0
BLOCK
  5
627
330
B4
100
AcDbEntity
  8
0
100
AcDbBlockBegin
  2
NOTE33
 70
     0
 71
     0
 10
0.0
 20
0.0
 30
0.0
  3
NOTE33
  1

  0
ENDBLK
  5
628
330
B4
100
AcDbEntity
  8
0
100
AcDbBlockEnd
  0
BLOCK
  5
629
330
B8
100
AcDbEntity
  8
0
100
AcDbBlockBegin
  2
NOTE34
 70
     0
 71
     0
 10
0.0
 20
0.0
 30
0.0
  3
NOTE34
  1

  0
ENDBLK
  5
62A
330
B8
100
AcDbEntity
  8
0
100
AcDbBlockEnd
  0
BLOCK
  5
62B
330
BC
100
AcDbEntity
  8
0
100
AcDbBlockBegin
  2
NOTE35
 70
     0
 71
     0
 10
0.0
 20
0.0
 30
0.0
  3
NOTE35
  1

  0
ENDBLK
  5
62C
330
BC
100
AcDbEntity
  8
0
100
AcDbBlockEnd
  0
BLOCK
  5
62D
330
C0
100
AcDbEntity
  8
0
100
AcDbBlockBegin
  2
NOTE36
 70
     0
 71
     0
 10
0.0
 20
0.0
 30
0.0
  3
NOTE36
  1

  0
ENDBLK
  5
62E
330
C0
100
AcDbEntity
  8
0
100
AcDbBlockEnd
  0
BLOCK
  5
62F
330
C4
100
AcDbEntity
  8
0
100
AcDbBlockBegin
  2
NOTE37
 70
     0
 71
     0
 10
0.0
 20
0.0
 30
0.0
  3
NOTE37
  1

  0
ENDBLK
  5
630
330
C4
100
AcDbEntity
  8
0
100
AcDbBlockEnd
  0
BLOCK
  5
631
330
C8
100
AcDbEntity
  8
0
100
AcDbBlockBegin
  2
NOTE38
 70
     0
 71
     0
 10
0.0
 20
0.0
 30
0.0
  3
NOTE38
  1

  0
ENDBLK
  5
632
330
C8
100
AcDbEntity
  8
0
100
AcDbBlockEnd
  0
BLOCK
  5
633
330
CC
100
AcDbEntity
  8
0
100
AcDbBlockBegin
  2
NOTE39
 70
     0
 71
     0
 10
0.0
 20
0.0
 30
0.0
  3
NOTE39
  1

  0
ENDBLK
  5
634
330
CC
100
AcDbEntity
  8
0
100
AcDbBlockEnd
  0
BLOCK
  5
635
330
D0
100
AcDbEntity
  8
0
100
AcDbBlockBegin
  2
NOTE40
 70
     0
 71
     0
 10
0.0
 20
0.0
 30
0.0
  3
NOTE40
  1

  0
ENDBLK
  5
636
330
D0
100
AcDbEntity
  8
0
100
AcDbBlockEnd
  0
BLOCK
  5
637
330
D5
100
AcDbEntity
  8
0
100
AcDbBlockBegin
  2
NOTE42
 70
     0
 71
     0
 10
0.0
 20
0.0
 30
0.0
  3
NOTE42
  1

  0
MTEXT
  5
D7
330
D5
100
AcDbEntity
  8
0
 62
     7
100
AcDbMText
 10
0.0
 20
0.1393700787
 30
0.0
 40
0.1
 41
0.0
 71
     1
 72
     1
  1
SCALE: 
  7
SLDTEXTSTYLE0
 73
     1
 44
1.0
  0
MTEXT
  5
D8
330
D5
100
AcDbEntity
  8
0
 62
     7
100
AcDbMText
 10
0.4697742865
 20
0.1393700787
 30
0.0
 40
0.1
 41
0.0
 71
     1
 72
     1
  1
1:1
  7
SLDTEXTSTYLE0
 73
     1
 44
1.0
  0
ENDBLK
  5
638
330
D5
100
AcDbEntity
  8
0
100
AcDbBlockEnd
  0
BLOCK
  5
639
330
E1
100
AcDbEntity
  8
0
100
AcDbBlockBegin
  2
NOTE49
 70
     0
 71
     0
 10
0.0
 20
0.0
 30
0.0
  3
NOTE49
  1

  0
ENDBLK
  5
63A
330
E1
100
AcDbEntity
  8
0
100
AcDbBlockEnd
  0
BLOCK
  5
63B
330
ED
100
AcDbEntity
  8
0
100
AcDbBlockBegin
  2
NOTE58
 70
     0
 71
     0
 10
0.0
 20
0.0
 30
0.0
  3
NOTE58
  1

  0
ENDBLK
  5
63C
330
ED
100
AcDbEntity
  8
0
100
AcDbBlockEnd
  0
BLOCK
  5
63D
330
F1
100
AcDbEntity
  8
0
100
AcDbBlockBegin
  2
NOTE59
 70
     0
 71
     0
 10
0.0
 20
0.0
 30
0.0
  3
NOTE59
  1

  0
ENDBLK
  5
63E
330
F1
100
AcDbEntity
  8
0
100
AcDbBlockEnd
  0
BLOCK
  5
63F
330
F7
100
AcDbEntity
  8
0
100
AcDbBlockBegin
  2
NOTE62
 70
     0
 71
     0
 10
0.0
 20
0.0
 30
0.0
  3
NOTE62
  1

  0
MTEXT
  5
F9
330
F7
100
AcDbEntity
  8
0
 62
     7
100
AcDbMText
 10
0.0
 20
0.0993700787
 30
0.0
 40
0.06
 41
0.0
 71
     1
 72
     1
  1
INTERPRET GEOMETRIC
  7
SLDTEXTSTYLE0
 73
     1
 44
1.0
  0
MTEXT
  5
FA
330
F7
100
AcDbEntity
  8
0
 62
     7
100
AcDbMText
 10
0.0
 20
0.0000000042
 30
0.0
 40
0.06
 41
0.0
 71
     1
 72
     1
  1
TOLERANCING PER:
  7
SLDTEXTSTYLE0
 73
     1
 44
1.0
  0
ENDBLK
  5
640
330
F7
100
AcDbEntity
  8
0
100
AcDbBlockEnd
  0
BLOCK
  5
641
330
FD
100
AcDbEntity
  8
0
100
AcDbBlockBegin
  2
NOTE63
 70
     0
 71
     0
 10
0.0
 20
0.0
 30
0.0
  3
NOTE63
  1

  0
MTEXT
  5
FF
330
FD
100
AcDbEntity
  8
0
 62
     7
100
AcDbMText
 10
0.0
 20
0.1043700787
 30
0.0
 40
0.065
 41
0.0
 71
     1
 72
     1
  1
DIMENSIONS ARE IN INCHES
  7
SLDTEXTSTYLE0
 73
     1
 44
1.0
  0
MTEXT
  5
100
330
FD
100
AcDbEntity
  8
0
 62
     7
100
AcDbMText
 10
0.0
 20
0.0000000028
 30
0.0
 40
0.065
 41
0.0
 71
     1
 72
     1
  1
TOLERANCES:
  7
SLDTEXTSTYLE0
 73
     1
 44
1.0
  0
MTEXT
  5
101
330
FD
100
AcDbEntity
  8
0
 62
     7
100
AcDbMText
 10
0.0
 20
-0.1043700732
 30
0.0
 40
0.065
 41
0.0
 71
     1
 72
     1
  1
FRACTIONAL
  7
SLDTEXTSTYLE0
 73
     1
 44
1.0
  0
MTEXT
  5
102
330
FD
100
AcDbEntity
  8
0
 62
     7
100
AcDbMText
 10
0.5175850508
 20
-0.1043700732
 30
0.0
 40
0.065
 41
0.0
 71
     1
 72
     1
  1
%%p
  7
SLDTEXTSTYLE0
 73
     1
 44
1.0
  0
MTEXT
  5
103
330
FD
100
AcDbEntity
  8
0
 62
     7
100
AcDbMText
 10
0.0
 20
-0.2087401492
 30
0.0
 40
0.065
 41
0.0
 71
     1
 72
     1
  1
ANGULAR: MACH
  7
SLDTEXTSTYLE0
 73
     1
 44
1.0
  0
MTEXT
  5
104
330
FD
100
AcDbEntity
  8
0
 62
     7
100
AcDbMText
 10
0.7233732769
 20
-0.2087401492
 30
0.0
 40
0.065
 41
0.0
 71
     1
 72
     1
  1
%%p
  7
SLDTEXTSTYLE0
 73
     1
 44
1.0
  0
MTEXT
  5
105
330
FD
100
AcDbEntity
  8
0
 62
     7
100
AcDbMText
 10
0.7852857683
 20
-0.2087401492
 30
0.0
 40
0.065
 41
0.0
 71
     1
 72
     1
  1
     BEND 
  7
SLDTEXTSTYLE0
 73
     1
 44
1.0
  0
MTEXT
  5
106
330
FD
100
AcDbEntity
  8
0
 62
     7
100
AcDbMText
 10
1.1478412867
 20
-0.2087401492
 30
0.0
 40
0.065
 41
0.0
 71
     1
 72
     1
  1
%%p
  7
SLDTEXTSTYLE0
 73
     1
 44
1.0
  0
MTEXT
  5
107
330
FD
100
AcDbEntity
  8
0
 62
     7
100
AcDbMText
 10
0.0
 20
-0.3131102252
 30
0.0
 40
0.065
 41
0.0
 71
     1
 72
     1
  1
TWO PLACE DECIMAL    
  7
SLDTEXTSTYLE0
 73
     1
 44
1.0
  0
MTEXT
  5
108
330
FD
100
AcDbEntity
  8
0
 62
     7
100
AcDbMText
 10
0.9794349188
 20
-0.3131102252
 30
0.0
 40
0.065
 41
0.0
 71
     1
 72
     1
  1
%%p
  7
SLDTEXTSTYLE0
 73
     1
 44
1.0
  0
MTEXT
  5
109
330
FD
100
AcDbEntity
  8
0
 62
     7
100
AcDbMText
 10
0.0
 20
-0.4174803011
 30
0.0
 40
0.065
 41
0.0
 71
     1
 72
     1
  1
THREE PLACE DECIMAL  
  7
SLDTEXTSTYLE0
 73
     1
 44
1.0
  0
MTEXT
  5
10A
330
FD
100
AcDbEntity
  8
0
 62
     7
100
AcDbMText
 10
0.9738037905
 20
-0.4174803011
 30
0.0
 40
0.065
 41
0.0
 71
     1
 72
     1
  1
%%p
  7
SLDTEXTSTYLE0
 73
     1
 44
1.0
  0
ENDBLK
  5
642
330
FD
100
AcDbEntity
  8
0
100
AcDbBlockEnd
  0
BLOCK
  5
643
330
111
100
AcDbEntity
  8
0
100
AcDbBlockBegin
  2
NOTE68
 70
     0
 71
     0
 10
0.0
 20
0.0
 30
0.0
  3
NOTE68
  1

  0
MTEXT
  5
113
330
111
100
AcDbEntity
  8
0
 62
     7
100
AcDbMText
 10
0.0
 20
0.0993700787
 30
0.0
 40
0.06
 41
0.0
 71
     1
 72
     1
  1
THE INFORMATION CONTAINED IN THIS
  7
SLDTEXTSTYLE0
 73
     1
 44
1.0
  0
MTEXT
  5
114
330
111
100
AcDbEntity
  8
0
 62
     7
100
AcDbMText
 10
0.0
 20
0.0000000042
 30
0.0
 40
0.06
 41
0.0
 71
     1
 72
     1
  1
DRAWING IS THE SOLE PROPERTY OF
  7
SLDTEXTSTYLE0
 73
     1
 44
1.0
  0
MTEXT
  5
115
330
111
100
AcDbEntity
  8
0
 62
     7
100
AcDbMText
 10
0.0
 20
-0.0993700704
 30
0.0
 40
0.06
 41
0.0
 71
     1
 72
     1
  1
<INSERT COMPANY NAME HERE>.  ANY 
  7
SLDTEXTSTYLE0
 73
     1
 44
1.0
  0
MTEXT
  5
116
330
111
100
AcDbEntity
  8
0
 62
     7
100
AcDbMText
 10
0.0
 20
-0.198740145
 30
0.0
 40
0.06
 41
0.0
 71
     1
 72
     1
  1
REPRODUCTION IN PART OR AS A WHOLE
  7
SLDTEXTSTYLE0
 73
     1
 44
1.0
  0
MTEXT
  5
117
330
111
100
AcDbEntity
  8
0
 62
     7
100
AcDbMText
 10
0.0
 20
-0.2981102195
 30
0.0
 40
0.06
 41
0.0
 71
     1
 72
     1
  1
WITHOUT THE WRITTEN PERMISSION OF
  7
SLDTEXTSTYLE0
 73
     1
 44
1.0
  0
MTEXT
  5
118
330
111
100
AcDbEntity
  8
0
 62
     7
100
AcDbMText
 10
0.0
 20
-0.3974802941
 30
0.0
 40
0.06
 41
0.0
 71
     1
 72
     1
  1
<INSERT COMPANY NAME HERE> IS 
  7
SLDTEXTSTYLE0
 73
     1
 44
1.0
  0
MTEXT
  5
119
330
111
100
AcDbEntity
  8
0
 62
     7
100
AcDbMText
 10
0.0
 20
-0.4968503687
 30
0.0
 40
0.06
 41
0.0
 71
     1
 72
     1
  1
PROHIBITED.
  7
SLDTEXTSTYLE0
 73
     1
 44
1.0
  0
ENDBLK
  5
644
330
111
100
AcDbEntity
  8
0
100
AcDbBlockEnd
  0
BLOCK
  5
645
330
190
100
AcDbEntity
  8
0
100
AcDbBlockBegin
  2
SW_CENTERMARK0
 70
     0
 71
     0
 10
0.0
 20
0.0
 30
0.0
  3
SW_CENTERMARK0
  1

  0
LINE
  5
192
330
190
100
AcDbEntity
  8
0
  6
Continuous
 62
     7
100
AcDbLine
 10
10.5687340575
 20
13.9498904731
 30
0.0
 11
10.5687340575
 21
14.0483156699
 31
0.0
  0
LINE
  5
193
330
190
100
AcDbEntity
  8
0
  6
Continuous
 62
     7
100
AcDbLine
 10
10.5687340575
 20
13.9498904731
 30
0.0
 11
10.4703088607
 21
13.9498904731
 31
0.0
  0
LINE
  5
194
330
190
100
AcDbEntity
  8
0
  6
Continuous
 62
     7
100
AcDbLine
 10
10.5687340575
 20
13.9498904731
 30
0.0
 11
10.5687340575
 21
13.8514652762
 31
0.0
  0
LINE
  5
195
330
190
100
AcDbEntity
  8
0
  6
Continuous
 62
     7
100
AcDbLine
 10
10.5687340575
 20
13.9498904731
 30
0.0
 11
10.6671592544
 21
13.9498904731
 31
0.0
  0
ENDBLK
  5
646
330
190
100
AcDbEntity
  8
0
100
AcDbBlockEnd
  0
BLOCK
  5
647
330
198
100
AcDbEntity
  8
0
100
AcDbBlockBegin
  2
SW_CENTERMARK1
 70
     0
 71
     0
 10
0.0
 20
0.0
 30
0.0
  3
SW_CENTERMARK1
  1

  0
LINE
  5
19A
330
198
100
AcDbEntity
  8
0
  6
Continuous
 62
     7
100
AcDbLine
 10
10.30495453
 20
13.9144574022
 30
0.0
 11
10.30495453
 21
14.0128825991
 31
0.0
  0
LINE
  5
19B
330
198
100
AcDbEntity
  8
0
  6
Continuous
 62
     7
100
AcDbLine
 10
10.30495453
 20
13.9144574022
 30
0.0
 11
10.2065293331
 21
13.9144574022
 31
0.0
  0
LINE
  5
19C
330
198
100
AcDbEntity
  8
0
  6
Continuous
 62
     7
100
AcDbLine
 10
10.30495453
 20
13.9144574022
 30
0.0
 11
10.30495453
 21
13.8160322054
 31
0.0
  0
LINE
  5
19D
330
198
100
AcDbEntity
  8
0
  6
Continuous
 62
     7
100
AcDbLine
 10
10.30495453
 20
13.9144574022
 30
0.0
 11
10.4033797268
 21
13.9144574022
 31
0.0
  0
ENDBLK
  5
648
330
198
100
AcDbEntity
  8
0
100
AcDbBlockEnd
  0
BLOCK
  5
649
330
1A0
100
AcDbEntity
  8
0
100
AcDbBlockBegin
  2
SW_CENTERMARK2
 70
     0
 71
     0
 10
0.0
 20
0.0
 30
0.0
  3
SW_CENTERMARK2
  1

  0
LINE
  5
1A2
330
1A0
100
AcDbEntity
  8
0
  6
Continuous
 62
     7
100
AcDbLine
 10
10.4899939001
 20
13.751858977
 30
0.0
 11
10.4899939001
 21
13.8502841739
 31
0.0
  0
LINE
  5
1A3
330
1A0
100
AcDbEntity
  8
0
  6
Continuous
 62
     7
100
AcDbLine
 10
10.4899939001
 20
13.751858977
 30
0.0
 11
10.3915687032
 21
13.751858977
 31
0.0
  0
LINE
  5
1A4
330
1A0
100
AcDbEntity
  8
0
  6
Continuous
 62
     7
100
AcDbLine
 10
10.4899939001
 20
13.751858977
 30
0.0
 11
10.4899939001
 21
13.6534337802
 31
0.0
  0
LINE
  5
1A5
330
1A0
100
AcDbEntity
  8
0
  6
Continuous
 62
     7
100
AcDbLine
 10
10.4899939001
 20
13.751858977
 30
0.0
 11
10.5884190969
 21
13.751858977
 31
0.0
  0
ENDBLK
  5
64A
330
1A0
100
AcDbEntity
  8
0
100
AcDbBlockEnd
  0
BLOCK
  5
64B
330
1A8
100
AcDbEntity
  8
0
100
AcDbBlockBegin
  2
SW_CENTERMARK3
 70
     0
 71
     0
 10
0.0
 20
0.0
 30
0.0
  3
SW_CENTERMARK3
  1

  0
LINE
  5
1AA
330
1A8
100
AcDbEntity
  8
0
  6
Continuous
 62
     7
100
AcDbLine
 10
10.5293639788
 20
13.8632762999
 30
0.0
 11
10.5293639788
 21
13.9617014967
 31
0.0
  0
LINE
  5
1AB
330
1A8
100
AcDbEntity
  8
0
  6
Continuous
 62
     7
100
AcDbLine
 10
10.5293639788
 20
13.8632762999
 30
0.0
 11
10.430938782
 21
13.8632762999
 31
0.0
  0
LINE
  5
1AC
330
1A8
100
AcDbEntity
  8
0
  6
Continuous
 62
     7
100
AcDbLine
 10
10.5293639788
 20
13.8632762999
 30
0.0
 11
10.5293639788
 21
13.764851103
 31
0.0
  0
LINE
  5
1AD
330
1A8
100
AcDbEntity
  8
0
  6
Continuous
 62
     7
100
AcDbLine
 10
10.5293639788
 20
13.8632762999
 30
0.0
 11
10.6277891757
 21
13.8632762999
 31
0.0
  0
ENDBLK
  5
64C
330
1A8
100
AcDbEntity
  8
0
100
AcDbBlockEnd
  0
BLOCK
  5
64D
330
1B0
100
AcDbEntity
  8
0
100
AcDbBlockBegin
  2
SW_CENTERMARK4
 70
     0
 71
     0
 10
0.0
 20
0.0
 30
0.0
  3
SW_CENTERMARK4
  1

  0
LINE
  5
1B2
330
1B0
100
AcDbEntity
  8
0
  6
Continuous
 62
     7
100
AcDbLine
 10
10.4899939001
 20
4.9589455912
 30
0.0
 11
10.4899939001
 21
5.057370788
 31
0.0
  0
LINE
  5
1B3
330
1B0
100
AcDbEntity
  8
0
  6
Continuous
 62
     7
100
AcDbLine
 10
10.4899939001
 20
4.9589455912
 30
0.0
 11
10.3915687032
 21
4.9589455912
 31
0.0
  0
LINE
  5
1B4
330
1B0
100
AcDbEntity
  8
0
  6
Continuous
 62
     7
100
AcDbLine
 10
10.4899939001
 20
4.9589455912
 30
0.0
 11
10.4899939001
 21
4.8605203943
 31
0.0
  0
LINE
  5
1B5
330
1B0
100
AcDbEntity
  8
0
  6
Continuous
 62
     7
100
AcDbLine
 10
10.4899939001
 20
4.9589455912
 30
0.0
 11
10.5884190969
 21
4.9589455912
 31
0.0
  0
ENDBLK
  5
64E
330
1B0
100
AcDbEntity
  8
0
100
AcDbBlockEnd
  0
BLOCK
  5
64F
330
1B8
100
AcDbEntity
  8
0
100
AcDbBlockBegin
  2
SW_CENTERMARK5
 70
     0
 71
     0
 10
0.0
 20
0.0
 30
0.0
  3
SW_CENTERMARK5
  1

  0
LINE
  5
1BA
330
1B8
100
AcDbEntity
  8
0
  6
Continuous
 62
     7
100
AcDbLine
 10
10.5293639788
 20
4.8475282684
 30
0.0
 11
10.5293639788
 21
4.9459534652
 31
0.0
  0
LINE
  5
1BB
330
1B8
100
AcDbEntity
  8
0
  6
Continuous
 62
     7
100
AcDbLine
 10
10.5293639788
 20
4.8475282684
 30
0.0
 11
10.430938782
 21
4.8475282684
 31
0.0
  0
LINE
  5
1BC
330
1B8
100
AcDbEntity
  8
0
  6
Continuous
 62
     7
100
AcDbLine
 10
10.5293639788
 20
4.8475282684
 30
0.0
 11
10.5293639788
 21
4.7491030715
 31
0.0
  0
LINE
  5
1BD
330
1B8
100
AcDbEntity
  8
0
  6
Continuous
 62
     7
100
AcDbLine
 10
10.5293639788
 20
4.8475282684
 30
0.0
 11
10.6277891757
 21
4.8475282684
 31
0.0
  0
ENDBLK
  5
650
330
1B8
100
AcDbEntity
  8
0
100
AcDbBlockEnd
  0
BLOCK
  5
651
330
1C0
100
AcDbEntity
  8
0
100
AcDbBlockBegin
  2
SW_CENTERMARK6
 70
     0
 71
     0
 10
0.0
 20
0.0
 30
0.0
  3
SW_CENTERMARK6
  1

  0
LINE
  5
1C2
330
1C0
100
AcDbEntity
  8
0
  6
Continuous
 62
     7
100
AcDbLine
 10
10.6396001993
 20
4.796347166
 30
0.0
 11
10.6396001993
 21
4.8947723628
 31
0.0
  0
LINE
  5
1C3
330
1C0
100
AcDbEntity
  8
0
  6
Continuous
 62
     7
100
AcDbLine
 10
10.6396001993
 20
4.796347166
 30
0.0
 11
10.5411750024
 21
4.796347166
 31
0.0
  0
LINE
  5
1C4
330
1C0
100
AcDbEntity
  8
0
  6
Continuous
 62
     7
100
AcDbLine
 10
10.6396001993
 20
4.796347166
 30
0.0
 11
10.6396001993
 21
4.6979219691
 31
0.0
  0
LINE
  5
1C5
330
1C0
100
AcDbEntity
  8
0
  6
Continuous
 62
     7
100
AcDbLine
 10
10.6396001993
 20
4.796347166
 30
0.0
 11
10.7380253961
 21
4.796347166
 31
0.0
  0
ENDBLK
  5
652
330
1C0
100
AcDbEntity
  8
0
100
AcDbBlockEnd
  0
BLOCK
  5
653
330
1C8
100
AcDbEntity
  8
0
100
AcDbBlockBegin
  2
SW_CENTERMARK7
 70
     0
 71
     0
 10
0.0
 20
0.0
 30
0.0
  3
SW_CENTERMARK7
  1

  0
LINE
  5
1CA
330
1C8
100
AcDbEntity
  8
0
  6
Continuous
 62
     7
100
AcDbLine
 10
10.5687340575
 20
4.7609140951
 30
0.0
 11
10.5687340575
 21
4.859339292
 31
0.0
  0
LINE
  5
1CB
330
1C8
100
AcDbEntity
  8
0
  6
Continuous
 62
     7
100
AcDbLine
 10
10.5687340575
 20
4.7609140951
 30
0.0
 11
10.4703088607
 21
4.7609140951
 31
0.0
  0
LINE
  5
1CC
330
1C8
100
AcDbEntity
  8
0
  6
Continuous
 62
     7
100
AcDbLine
 10
10.5687340575
 20
4.7609140951
 30
0.0
 11
10.5687340575
 21
4.6624888983
 31
0.0
  0
LINE
  5
1CD
330
1C8
100
AcDbEntity
  8
0
  6
Continuous
 62
     7
100
AcDbLine
 10
10.5687340575
 20
4.7609140951
 30
0.0
 11
10.6671592544
 21
4.7609140951
 31
0.0
  0
ENDBLK
  5
654
330
1C8
100
AcDbEntity
  8
0
100
AcDbBlockEnd
  0
BLOCK
  5
655
330
1D0
100
AcDbEntity
  8
0
100
AcDbBlockBegin
  2
SW_CENTERMARK8
 70
     0
 71
     0
 10
0.0
 20
0.0
 30
0.0
  3
SW_CENTERMARK8
  1

  0
LINE
  5
1D2
330
1D0
100
AcDbEntity
  8
0
  6
Continuous
 62
     7
100
AcDbLine
 10
10.3758206717
 20
4.7609140951
 30
0.0
 11
10.3758206717
 21
4.859339292
 31
0.0
  0
LINE
  5
1D3
330
1D0
100
AcDbEntity
  8
0
  6
Continuous
 62
     7
100
AcDbLine
 10
10.3758206717
 20
4.7609140951
 30
0.0
 11
10.2773954749
 21
4.7609140951
 31
0.0
  0
LINE
  5
1D4
330
1D0
100
AcDbEntity
  8
0
  6
Continuous
 62
     7
100
AcDbLine
 10
10.3758206717
 20
4.7609140951
 30
0.0
 11
10.3758206717
 21
4.6624888983
 31
0.0
  0
LINE
  5
1D5
330
1D0
100
AcDbEntity
  8
0
  6
Continuous
 62
     7
100
AcDbLine
 10
10.3758206717
 20
4.7609140951
 30
0.0
 11
10.4742458686
 21
4.7609140951
 31
0.0
  0
ENDBLK
  5
656
330
1D0
100
AcDbEntity
  8
0
100
AcDbBlockEnd
  0
BLOCK
  5
657
330
1D8
100
AcDbEntity
  8
0
100
AcDbBlockBegin
  2
SW_CENTERMARK9
 70
     0
 71
     0
 10
0.0
 20
0.0
 30
0.0
  3
SW_CENTERMARK9
  1

  0
LINE
  5
1DA
330
1D8
100
AcDbEntity
  8
0
  6
Continuous
 62
     7
100
AcDbLine
 10
10.30495453
 20
4.796347166
 30
0.0
 11
10.30495453
 21
4.8947723628
 31
0.0
  0
LINE
  5
1DB
330
1D8
100
AcDbEntity
  8
0
  6
Continuous
 62
     7
100
AcDbLine
 10
10.30495453
 20
4.796347166
 30
0.0
 11
10.2065293331
 21
4.796347166
 31
0.0
  0
LINE
  5
1DC
330
1D8
100
AcDbEntity
  8
0
  6
Continuous
 62
     7
100
AcDbLine
 10
10.30495453
 20
4.796347166
 30
0.0
 11
10.30495453
 21
4.6979219691
 31
0.0
  0
LINE
  5
1DD
330
1D8
100
AcDbEntity
  8
0
  6
Continuous
 62
     7
100
AcDbLine
 10
10.30495453
 20
4.796347166
 30
0.0
 11
10.4033797268
 21
4.796347166
 31
0.0
  0
ENDBLK
  5
658
330
1D8
100
AcDbEntity
  8
0
100
AcDbBlockEnd
  0
BLOCK
  5
659
330
1E0
100
AcDbEntity
  8
0
100
AcDbBlockBegin
  2
SW_CENTERMARK10
 70
     0
 71
     0
 10
0.0
 20
0.0
 30
0.0
  3
SW_CENTERMARK10
  1

  0
LINE
  5
1E2
330
1E0
100
AcDbEntity
  8
0
  6
Continuous
 62
     7
100
AcDbLine
 10
10.6396001993
 20
13.9144574022
 30
0.0
 11
10.6396001993
 21
14.0128825991
 31
0.0
  0
LINE
  5
1E3
330
1E0
100
AcDbEntity
  8
0
  6
Continuous
 62
     7
100
AcDbLine
 10
10.6396001993
 20
13.9144574022
 30
0.0
 11
10.5411750024
 21
13.9144574022
 31
0.0
  0
LINE
  5
1E4
330
1E0
100
AcDbEntity
  8
0
  6
Continuous
 62
     7
100
AcDbLine
 10
10.6396001993
 20
13.9144574022
 30
0.0
 11
10.6396001993
 21
13.8160322054
 31
0.0
  0
LINE
  5
1E5
330
1E0
100
AcDbEntity
  8
0
  6
Continuous
 62
     7
100
AcDbLine
 10
10.6396001993
 20
13.9144574022
 30
0.0
 11
10.7380253961
 21
13.9144574022
 31
0.0
  0
ENDBLK
  5
65A
330
1E0
100
AcDbEntity
  8
0
100
AcDbBlockEnd
  0
BLOCK
  5
65B
330
1E8
100
AcDbEntity
  8
0
100
AcDbBlockBegin
  2
SW_CENTERMARK11
 70
     0
 71
     0
 10
0.0
 20
0.0
 30
0.0
  3
SW_CENTERMARK11
  1

  0
LINE
  5
1EA
330
1E8
100
AcDbEntity
  8
0
  6
Continuous
 62
     7
100
AcDbLine
 10
10.81795453
 20
8.7812408668
 30
0.0
 11
10.81795453
 21
8.8796660636
 31
0.0
  0
LINE
  5
1EB
330
1E8
100
AcDbEntity
  8
0
  6
Continuous
 62
     7
100
AcDbLine
 10
10.81795453
 20
8.7812408668
 30
0.0
 11
10.7195293331
 21
8.7812408668
 31
0.0
  0
LINE
  5
1EC
330
1E8
100
AcDbEntity
  8
0
  6
Continuous
 62
     7
100
AcDbLine
 10
10.81795453
 20
8.7812408668
 30
0.0
 11
10.81795453
 21
8.6828156699
 31
0.0
  0
LINE
  5
1ED
330
1E8
100
AcDbEntity
  8
0
  6
Continuous
 62
     7
100
AcDbLine
 10
10.81795453
 20
8.7812408668
 30
0.0
 11
10.9163797268
 21
8.7812408668
 31
0.0
  0
LINE
  5
1EE
330
1E8
100
AcDbEntity
  8
0
  6
CENTERX2
 62
     7
100
AcDbLine
 10
10.81795453
 20
8.9780912605
 30
0.0
 11
10.81795453
 21
9.0126660636
 31
0.0
  0
LINE
  5
1EF
330
1E8
100
AcDbEntity
  8
0
  6
CENTERX2
 62
     7
100
AcDbLine
 10
10.6211041363
 20
8.7812408668
 30
0.0
 11
10.5865293331
 21
8.7812408668
 31
0.0
  0
LINE
  5
1F0
330
1E8
100
AcDbEntity
  8
0
  6
CENTERX2
 62
     7
100
AcDbLine
 10
10.81795453
 20
8.5843904731
 30
0.0
 11
10.81795453
 21
8.5498156699
 31
0.0
  0
LINE
  5
1F1
330
1E8
100
AcDbEntity
  8
0
  6
CENTERX2
 62
     7
100
AcDbLine
 10
11.0148049237
 20
8.7812408668
 30
0.0
 11
11.0493797268
 21
8.7812408668
 31
0.0
  0
ENDBLK
  5
65C
330
1E8
100
AcDbEntity
  8
0
100
AcDbBlockEnd
  0
BLOCK
  5
65D
330
1F4
100
AcDbEntity
  8
0
100
AcDbBlockBegin
  2
SW_CENTERMARK12
 70
     0
 71
     0
 10
0.0
 20
0.0
 30
0.0
  3
SW_CENTERMARK12
  1

  0
LINE
  5
1F6
330
1F4
100
AcDbEntity
  8
0
  6
Continuous
 62
     7
100
AcDbLine
 10
10.81795453
 20
7.9062408668
 30
0.0
 11
10.81795453
 21
8.0046660636
 31
0.0
  0
LINE
  5
1F7
330
1F4
100
AcDbEntity
  8
0
  6
Continuous
 62
     7
100
AcDbLine
 10
10.81795453
 20
7.9062408668
 30
0.0
 11
10.7195293331
 21
7.9062408668
 31
0.0
  0
LINE
  5
1F8
330
1F4
100
AcDbEntity
  8
0
  6
Continuous
 62
     7
100
AcDbLine
 10
10.81795453
 20
7.9062408668
 30
0.0
 11
10.81795453
 21
7.8078156699
 31
0.0
  0
LINE
  5
1F9
330
1F4
100
AcDbEntity
  8
0
  6
Continuous
 62
     7
100
AcDbLine
 10
10.81795453
 20
7.9062408668
 30
0.0
 11
10.9163797268
 21
7.9062408668
 31
0.0
  0
LINE
  5
1FA
330
1F4
100
AcDbEntity
  8
0
  6
CENTERX2
 62
     7
100
AcDbLine
 10
10.81795453
 20
8.1030912605
 30
0.0
 11
10.81795453
 21
8.1376660636
 31
0.0
  0
LINE
  5
1FB
330
1F4
100
AcDbEntity
  8
0
  6
CENTERX2
 62
     7
100
AcDbLine
 10
10.6211041363
 20
7.9062408668
 30
0.0
 11
10.5865293331
 21
7.9062408668
 31
0.0
  0
LINE
  5
1FC
330
1F4
100
AcDbEntity
  8
0
  6
CENTERX2
 62
     7
100
AcDbLine
 10
10.81795453
 20
7.7093904731
 30
0.0
 11
10.81795453
 21
7.6748156699
 31
0.0
  0
LINE
  5
1FD
330
1F4
100
AcDbEntity
  8
0
  6
CENTERX2
 62
     7
100
AcDbLine
 10
11.0148049237
 20
7.9062408668
 30
0.0
 11
11.0493797268
 21
7.9062408668
 31
0.0
  0
ENDBLK
  5
65E
330
1F4
100
AcDbEntity
  8
0
100
AcDbBlockEnd
  0
BLOCK
  5
65F
330
200
100
AcDbEntity
  8
0
100
AcDbBlockBegin
  2
SW_CENTERMARK13
 70
     0
 71
     0
 10
0.0
 20
0.0
 30
0.0
  3
SW_CENTERMARK13
  1

  0
LINE
  5
202
330
200
100
AcDbEntity
  8
0
  6
Continuous
 62
     7
100
AcDbLine
 10
10.86795453
 20
8.2112408668
 30
0.0
 11
10.86795453
 21
8.3096660636
 31
0.0
  0
LINE
  5
203
330
200
100
AcDbEntity
  8
0
  6
Continuous
 62
     7
100
AcDbLine
 10
10.86795453
 20
8.2112408668
 30
0.0
 11
10.7695293331
 21
8.2112408668
 31
0.0
  0
LINE
  5
204
330
200
100
AcDbEntity
  8
0
  6
Continuous
 62
     7
100
AcDbLine
 10
10.86795453
 20
8.2112408668
 30
0.0
 11
10.86795453
 21
8.1128156699
 31
0.0
  0
LINE
  5
205
330
200
100
AcDbEntity
  8
0
  6
Continuous
 62
     7
100
AcDbLine
 10
10.86795453
 20
8.2112408668
 30
0.0
 11
10.9663797268
 21
8.2112408668
 31
0.0
  0
LINE
  5
206
330
200
100
AcDbEntity
  8
0
  6
CENTERX2
 62
     7
100
AcDbLine
 10
10.7695293331
 20
8.2112408668
 30
0.0
 11
10.6995293331
 21
8.2112408668
 31
0.0
  0
LINE
  5
207
330
200
100
AcDbEntity
  8
0
  6
CENTERX2
 62
     7
100
AcDbLine
 10
10.86795453
 20
8.1128156699
 30
0.0
 11
10.86795453
 21
8.0428156699
 31
0.0
  0
LINE
  5
208
330
200
100
AcDbEntity
  8
0
  6
Continuous
 62
     7
100
AcDbLine
 10
10.86795453
 20
8.4712408668
 30
0.0
 11
10.7695293331
 21
8.4712408668
 31
0.0
  0
LINE
  5
209
330
200
100
AcDbEntity
  8
0
  6
Continuous
 62
     7
100
AcDbLine
 10
10.86795453
 20
8.4712408668
 30
0.0
 11
10.86795453
 21
8.3728156699
 31
0.0
  0
LINE
  5
20A
330
200
100
AcDbEntity
  8
0
  6
Continuous
 62
     7
100
AcDbLine
 10
10.86795453
 20
8.4712408668
 30
0.0
 11
10.9663797268
 21
8.4712408668
 31
0.0
  0
LINE
  5
20B
330
200
100
AcDbEntity
  8
0
  6
Continuous
 62
     7
100
AcDbLine
 10
10.86795453
 20
8.4712408668
 30
0.0
 11
10.86795453
 21
8.5696660636
 31
0.0
  0
LINE
  5
20C
330
200
100
AcDbEntity
  8
0
  6
CENTERX2
 62
     7
100
AcDbLine
 10
10.9663797268
 20
8.4712408668
 30
0.0
 11
11.0363797268
 21
8.4712408668
 31
0.0
  0
LINE
  5
20D
330
200
100
AcDbEntity
  8
0
  6
CENTERX2
 62
     7
100
AcDbLine
 10
10.86795453
 20
8.5696660636
 30
0.0
 11
10.86795453
 21
8.6396660636
 31
0.0
  0
LINE
  5
20E
330
200
100
AcDbEntity
  8
0
  6
Continuous
 62
     7
100
AcDbLine
 10
10.66795453
 20
8.4712408668
 30
0.0
 11
10.5695293331
 21
8.4712408668
 31
0.0
  0
LINE
  5
20F
330
200
100
AcDbEntity
  8
0
  6
Continuous
 62
     7
100
AcDbLine
 10
10.66795453
 20
8.4712408668
 30
0.0
 11
10.66795453
 21
8.3728156699
 31
0.0
  0
LINE
  5
210
330
200
100
AcDbEntity
  8
0
  6
Continuous
 62
     7
100
AcDbLine
 10
10.66795453
 20
8.4712408668
 30
0.0
 11
10.7663797268
 21
8.4712408668
 31
0.0
  0
LINE
  5
211
330
200
100
AcDbEntity
  8
0
  6
Continuous
 62
     7
100
AcDbLine
 10
10.66795453
 20
8.4712408668
 30
0.0
 11
10.66795453
 21
8.5696660636
 31
0.0
  0
LINE
  5
212
330
200
100
AcDbEntity
  8
0
  6
CENTERX2
 62
     7
100
AcDbLine
 10
10.5695293331
 20
8.4712408668
 30
0.0
 11
10.4995293331
 21
8.4712408668
 31
0.0
  0
LINE
  5
213
330
200
100
AcDbEntity
  8
0
  6
CENTERX2
 62
     7
100
AcDbLine
 10
10.66795453
 20
8.5696660636
 30
0.0
 11
10.66795453
 21
8.6396660636
 31
0.0
  0
LINE
  5
214
330
200
100
AcDbEntity
  8
0
  6
Continuous
 62
     7
100
AcDbLine
 10
10.66795453
 20
8.2112408668
 30
0.0
 11
10.5695293331
 21
8.2112408668
 31
0.0
  0
LINE
  5
215
330
200
100
AcDbEntity
  8
0
  6
Continuous
 62
     7
100
AcDbLine
 10
10.66795453
 20
8.2112408668
 30
0.0
 11
10.66795453
 21
8.1128156699
 31
0.0
  0
LINE
  5
216
330
200
100
AcDbEntity
  8
0
  6
Continuous
 62
     7
100
AcDbLine
 10
10.66795453
 20
8.2112408668
 30
0.0
 11
10.7663797268
 21
8.2112408668
 31
0.0
  0
LINE
  5
217
330
200
100
AcDbEntity
  8
0
  6
Continuous
 62
     7
100
AcDbLine
 10
10.66795453
 20
8.2112408668
 30
0.0
 11
10.66795453
 21
8.3096660636
 31
0.0
  0
LINE
  5
218
330
200
100
AcDbEntity
  8
0
  6
CENTERX2
 62
     7
100
AcDbLine
 10
10.5695293331
 20
8.2112408668
 30
0.0
 11
10.4995293331
 21
8.2112408668
 31
0.0
  0
LINE
  5
219
330
200
100
AcDbEntity
  8
0
  6
CENTERX2
 62
     7
100
AcDbLine
 10
10.66795453
 20
8.1128156699
 30
0.0
 11
10.66795453
 21
8.0428156699
 31
0.0
  0
ENDBLK
  5
660
330
200
100
AcDbEntity
  8
0
100
AcDbBlockEnd
  0
BLOCK
  5
661
330
21C
100
AcDbEntity
  8
0
100
AcDbBlockBegin
  2
SW_CENTERMARK14
 70
     0
 71
     0
 10
0.0
 20
0.0
 30
0.0
  3
SW_CENTERMARK14
  1

  0
LINE
  5
21E
330
21C
100
AcDbEntity
  8
0
  6
Continuous
 62
     7
100
AcDbLine
 10
10.86795453
 20
9.0912408668
 30
0.0
 11
10.86795453
 21
9.1896660636
 31
0.0
  0
LINE
  5
21F
330
21C
100
AcDbEntity
  8
0
  6
Continuous
 62
     7
100
AcDbLine
 10
10.86795453
 20
9.0912408668
 30
0.0
 11
10.7695293331
 21
9.0912408668
 31
0.0
  0
LINE
  5
220
330
21C
100
AcDbEntity
  8
0
  6
Continuous
 62
     7
100
AcDbLine
 10
10.86795453
 20
9.0912408668
 30
0.0
 11
10.86795453
 21
8.9928156699
 31
0.0
  0
LINE
  5
221
330
21C
100
AcDbEntity
  8
0
  6
Continuous
 62
     7
100
AcDbLine
 10
10.86795453
 20
9.0912408668
 30
0.0
 11
10.9663797268
 21
9.0912408668
 31
0.0
  0
LINE
  5
222
330
21C
100
AcDbEntity
  8
0
  6
CENTERX2
 62
     7
100
AcDbLine
 10
10.7695293331
 20
9.0912408668
 30
0.0
 11
10.6995293331
 21
9.0912408668
 31
0.0
  0
LINE
  5
223
330
21C
100
AcDbEntity
  8
0
  6
CENTERX2
 62
     7
100
AcDbLine
 10
10.86795453
 20
8.9928156699
 30
0.0
 11
10.86795453
 21
8.9228156699
 31
0.0
  0
LINE
  5
224
330
21C
100
AcDbEntity
  8
0
  6
Continuous
 62
     7
100
AcDbLine
 10
10.86795453
 20
9.3512408668
 30
0.0
 11
10.7695293331
 21
9.3512408668
 31
0.0
  0
LINE
  5
225
330
21C
100
AcDbEntity
  8
0
  6
Continuous
 62
     7
100
AcDbLine
 10
10.86795453
 20
9.3512408668
 30
0.0
 11
10.86795453
 21
9.2528156699
 31
0.0
  0
LINE
  5
226
330
21C
100
AcDbEntity
  8
0
  6
Continuous
 62
     7
100
AcDbLine
 10
10.86795453
 20
9.3512408668
 30
0.0
 11
10.9663797268
 21
9.3512408668
 31
0.0
  0
LINE
  5
227
330
21C
100
AcDbEntity
  8
0
  6
Continuous
 62
     7
100
AcDbLine
 10
10.86795453
 20
9.3512408668
 30
0.0
 11
10.86795453
 21
9.4496660636
 31
0.0
  0
LINE
  5
228
330
21C
100
AcDbEntity
  8
0
  6
CENTERX2
 62
     7
100
AcDbLine
 10
10.9663797268
 20
9.3512408668
 30
0.0
 11
11.0363797268
 21
9.3512408668
 31
0.0
  0
LINE
  5
229
330
21C
100
AcDbEntity
  8
0
  6
CENTERX2
 62
     7
100
AcDbLine
 10
10.86795453
 20
9.4496660636
 30
0.0
 11
10.86795453
 21
9.5196660636
 31
0.0
  0
LINE
  5
22A
330
21C
100
AcDbEntity
  8
0
  6
Continuous
 62
     7
100
AcDbLine
 10
10.66795453
 20
9.3512408668
 30
0.0
 11
10.5695293331
 21
9.3512408668
 31
0.0
  0
LINE
  5
22B
330
21C
100
AcDbEntity
  8
0
  6
Continuous
 62
     7
100
AcDbLine
 10
10.66795453
 20
9.3512408668
 30
0.0
 11
10.66795453
 21
9.2528156699
 31
0.0
  0
LINE
  5
22C
330
21C
100
AcDbEntity
  8
0
  6
Continuous
 62
     7
100
AcDbLine
 10
10.66795453
 20
9.3512408668
 30
0.0
 11
10.7663797268
 21
9.3512408668
 31
0.0
  0
LINE
  5
22D
330
21C
100
AcDbEntity
  8
0
  6
Continuous
 62
     7
100
AcDbLine
 10
10.66795453
 20
9.3512408668
 30
0.0
 11
10.66795453
 21
9.4496660636
 31
0.0
  0
LINE
  5
22E
330
21C
100
AcDbEntity
  8
0
  6
CENTERX2
 62
     7
100
AcDbLine
 10
10.5695293331
 20
9.3512408668
 30
0.0
 11
10.4995293331
 21
9.3512408668
 31
0.0
  0
LINE
  5
22F
330
21C
100
AcDbEntity
  8
0
  6
CENTERX2
 62
     7
100
AcDbLine
 10
10.66795453
 20
9.4496660636
 30
0.0
 11
10.66795453
 21
9.5196660636
 31
0.0
  0
LINE
  5
230
330
21C
100
AcDbEntity
  8
0
  6
Continuous
 62
     7
100
AcDbLine
 10
10.66795453
 20
9.0912408668
 30
0.0
 11
10.5695293331
 21
9.0912408668
 31
0.0
  0
LINE
  5
231
330
21C
100
AcDbEntity
  8
0
  6
Continuous
 62
     7
100
AcDbLine
 10
10.66795453
 20
9.0912408668
 30
0.0
 11
10.66795453
 21
8.9928156699
 31
0.0
  0
LINE
  5
232
330
21C
100
AcDbEntity
  8
0
  6
Continuous
 62
     7
100
AcDbLine
 10
10.66795453
 20
9.0912408668
 30
0.0
 11
10.7663797268
 21
9.0912408668
 31
0.0
  0
LINE
  5
233
330
21C
100
AcDbEntity
  8
0
  6
Continuous
 62
     7
100
AcDbLine
 10
10.66795453
 20
9.0912408668
 30
0.0
 11
10.66795453
 21
9.1896660636
 31
0.0
  0
LINE
  5
234
330
21C
100
AcDbEntity
  8
0
  6
CENTERX2
 62
     7
100
AcDbLine
 10
10.5695293331
 20
9.0912408668
 30
0.0
 11
10.4995293331
 21
9.0912408668
 31
0.0
  0
LINE
  5
235
330
21C
100
AcDbEntity
  8
0
  6
CENTERX2
 62
     7
100
AcDbLine
 10
10.66795453
 20
8.9928156699
 30
0.0
 11
10.66795453
 21
8.9228156699
 31
0.0
  0
ENDBLK
  5
662
330
21C
100
AcDbEntity
  8
0
100
AcDbBlockEnd
  0
BLOCK
  5
663
330
238
100
AcDbEntity
  8
0
100
AcDbBlockBegin
  2
SW_CENTERMARK15
 70
     0
 71
     0
 10
0.0
 20
0.0
 30
0.0
  3
SW_CENTERMARK15
  1

  0
LINE
  5
23A
330
238
100
AcDbEntity
  8
0
  6
Continuous
 62
     7
100
AcDbLine
 10
11.09395453
 20
5.8348681347
 30
0.0
 11
11.09395453
 21
5.9332933315
 31
0.0
  0
LINE
  5
23B
330
238
100
AcDbEntity
  8
0
  6
Continuous
 62
     7
100
AcDbLine
 10
11.09395453
 20
5.8348681347
 30
0.0
 11
10.9955293331
 21
5.8348681347
 31
0.0
  0
LINE
  5
23C
330
238
100
AcDbEntity
  8
0
  6
Continuous
 62
     7
100
AcDbLine
 10
11.09395453
 20
5.8348681347
 30
0.0
 11
11.09395453
 21
5.7364429378
 31
0.0
  0
LINE
  5
23D
330
238
100
AcDbEntity
  8
0
  6
Continuous
 62
     7
100
AcDbLine
 10
11.09395453
 20
5.8348681347
 30
0.0
 11
11.1923797268
 21
5.8348681347
 31
0.0
  0
ENDBLK
  5
664
330
238
100
AcDbEntity
  8
0
100
AcDbBlockEnd
  0
BLOCK
  5
665
330
240
100
AcDbEntity
  8
0
100
AcDbBlockBegin
  2
SW_CENTERMARK16
 70
     0
 71
     0
 10
0.0
 20
0.0
 30
0.0
  3
SW_CENTERMARK16
  1

  0
LINE
  5
242
330
240
100
AcDbEntity
  8
0
  6
Continuous
 62
     7
100
AcDbLine
 10
11.09395453
 20
5.2208681347
 30
0.0
 11
11.09395453
 21
5.3192933315
 31
0.0
  0
LINE
  5
243
330
240
100
AcDbEntity
  8
0
  6
Continuous
 62
     7
100
AcDbLine
 10
11.09395453
 20
5.2208681347
 30
0.0
 11
10.9955293331
 21
5.2208681347
 31
0.0
  0
LINE
  5
244
330
240
100
AcDbEntity
  8
0
  6
Continuous
 62
     7
100
AcDbLine
 10
11.09395453
 20
5.2208681347
 30
0.0
 11
11.09395453
 21
5.1224429378
 31
0.0
  0
LINE
  5
245
330
240
100
AcDbEntity
  8
0
  6
Continuous
 62
     7
100
AcDbLine
 10
11.09395453
 20
5.2208681347
 30
0.0
 11
11.1923797268
 21
5.2208681347
 31
0.0
  0
ENDBLK
  5
666
330
240
100
AcDbEntity
  8
0
100
AcDbBlockEnd
  0
BLOCK
  5
667
330
248
100
AcDbEntity
  8
0
100
AcDbBlockBegin
  2
SW_CENTERMARK17
 70
     0
 71
     0
 10
0.0
 20
0.0
 30
0.0
  3
SW_CENTERMARK17
  1

  0
LINE
  5
24A
330
248
100
AcDbEntity
  8
0
  6
Continuous
 62
     7
100
AcDbLine
 10
10.57795453
 20
5.2208681347
 30
0.0
 11
10.57795453
 21
5.3192933315
 31
0.0
  0
LINE
  5
24B
330
248
100
AcDbEntity
  8
0
  6
Continuous
 62
     7
100
AcDbLine
 10
10.57795453
 20
5.2208681347
 30
0.0
 11
10.4795293331
 21
5.2208681347
 31
0.0
  0
LINE
  5
24C
330
248
100
AcDbEntity
  8
0
  6
Continuous
 62
     7
100
AcDbLine
 10
10.57795453
 20
5.2208681347
 30
0.0
 11
10.57795453
 21
5.1224429378
 31
0.0
  0
LINE
  5
24D
330
248
100
AcDbEntity
  8
0
  6
Continuous
 62
     7
100
AcDbLine
 10
10.57795453
 20
5.2208681347
 30
0.0
 11
10.6763797268
 21
5.2208681347
 31
0.0
  0
ENDBLK
  5
668
330
248
100
AcDbEntity
  8
0
100
AcDbBlockEnd
  0
BLOCK
  5
669
330
250
100
AcDbEntity
  8
0
100
AcDbBlockBegin
  2
SW_CENTERMARK18
 70
     0
 71
     0
 10
0.0
 20
0.0
 30
0.0
  3
SW_CENTERMARK18
  1

  0
LINE
  5
252
330
250
100
AcDbEntity
  8
0
  6
Continuous
 62
     7
100
AcDbLine
 10
10.57795453
 20
5.8348681347
 30
0.0
 11
10.57795453
 21
5.9332933315
 31
0.0
  0
LINE
  5
253
330
250
100
AcDbEntity
  8
0
  6
Continuous
 62
     7
100
AcDbLine
 10
10.57795453
 20
5.8348681347
 30
0.0
 11
10.4795293331
 21
5.8348681347
 31
0.0
  0
LINE
  5
254
330
250
100
AcDbEntity
  8
0
  6
Continuous
 62
     7
100
AcDbLine
 10
10.57795453
 20
5.8348681347
 30
0.0
 11
10.57795453
 21
5.7364429378
 31
0.0
  0
LINE
  5
255
330
250
100
AcDbEntity
  8
0
  6
Continuous
 62
     7
100
AcDbLine
 10
10.57795453
 20
5.8348681347
 30
0.0
 11
10.6763797268
 21
5.8348681347
 31
0.0
  0
ENDBLK
  5
66A
330
250
100
AcDbEntity
  8
0
100
AcDbBlockEnd
  0
BLOCK
  5
66B
330
258
100
AcDbEntity
  8
0
100
AcDbBlockBegin
  2
SW_CENTERMARK19
 70
     0
 71
     0
 10
0.0
 20
0.0
 30
0.0
  3
SW_CENTERMARK19
  1

  0
LINE
  5
25A
330
258
100
AcDbEntity
  8
0
  6
Continuous
 62
     7
100
AcDbLine
 10
10.9720883883
 20
6.1226522054
 30
0.0
 11
10.9720883883
 21
6.2210774022
 31
0.0
  0
LINE
  5
25B
330
258
100
AcDbEntity
  8
0
  6
Continuous
 62
     7
100
AcDbLine
 10
10.9720883883
 20
6.1226522054
 30
0.0
 11
10.8736631914
 21
6.1226522054
 31
0.0
  0
LINE
  5
25C
330
258
100
AcDbEntity
  8
0
  6
Continuous
 62
     7
100
AcDbLine
 10
10.9720883883
 20
6.1226522054
 30
0.0
 11
10.9720883883
 21
6.0242270085
 31
0.0
  0
LINE
  5
25D
330
258
100
AcDbEntity
  8
0
  6
Continuous
 62
     7
100
AcDbLine
 10
10.9720883883
 20
6.1226522054
 30
0.0
 11
11.0705135851
 21
6.1226522054
 31
0.0
  0
ENDBLK
  5
66C
330
258
100
AcDbEntity
  8
0
100
AcDbBlockEnd
  0
BLOCK
  5
66D
330
260
100
AcDbEntity
  8
0
100
AcDbBlockBegin
  2
SW_CENTERMARK20
 70
     0
 71
     0
 10
0.0
 20
0.0
 30
0.0
  3
SW_CENTERMARK20
  1

  0
LINE
  5
262
330
260
100
AcDbEntity
  8
0
  6
Continuous
 62
     7
100
AcDbLine
 10
10.5496474434
 20
6.1226522054
 30
0.0
 11
10.5496474434
 21
6.2210774022
 31
0.0
  0
LINE
  5
263
330
260
100
AcDbEntity
  8
0
  6
Continuous
 62
     7
100
AcDbLine
 10
10.5496474434
 20
6.1226522054
 30
0.0
 11
10.4512222465
 21
6.1226522054
 31
0.0
  0
LINE
  5
264
330
260
100
AcDbEntity
  8
0
  6
Continuous
 62
     7
100
AcDbLine
 10
10.5496474434
 20
6.1226522054
 30
0.0
 11
10.5496474434
 21
6.0242270085
 31
0.0
  0
LINE
  5
265
330
260
100
AcDbEntity
  8
0
  6
Continuous
 62
     7
100
AcDbLine
 10
10.5496474434
 20
6.1226522054
 30
0.0
 11
10.6480726402
 21
6.1226522054
 31
0.0
  0
ENDBLK
  5
66E
330
260
100
AcDbEntity
  8
0
100
AcDbBlockEnd
  0
BLOCK
  5
66F
330
268
100
AcDbEntity
  8
0
100
AcDbBlockBegin
  2
SW_CENTERMARK21
 70
     0
 71
     0
 10
0.0
 20
0.0
 30
0.0
  3
SW_CENTERMARK21
  1

  0
LINE
  5
26A
330
268
100
AcDbEntity
  8
0
  6
Continuous
 62
     7
100
AcDbLine
 10
10.5496474434
 20
7.0569041739
 30
0.0
 11
10.5496474434
 21
7.1553293707
 31
0.0
  0
LINE
  5
26B
330
268
100
AcDbEntity
  8
0
  6
Continuous
 62
     7
100
AcDbLine
 10
10.5496474434
 20
7.0569041739
 30
0.0
 11
10.4512222465
 21
7.0569041739
 31
0.0
  0
LINE
  5
26C
330
268
100
AcDbEntity
  8
0
  6
Continuous
 62
     7
100
AcDbLine
 10
10.5496474434
 20
7.0569041739
 30
0.0
 11
10.5496474434
 21
6.958478977
 31
0.0
  0
LINE
  5
26D
330
268
100
AcDbEntity
  8
0
  6
Continuous
 62
     7
100
AcDbLine
 10
10.5496474434
 20
7.0569041739
 30
0.0
 11
10.6480726402
 21
7.0569041739
 31
0.0
  0
ENDBLK
  5
670
330
268
100
AcDbEntity
  8
0
100
AcDbBlockEnd
  0
BLOCK
  5
671
330
270
100
AcDbEntity
  8
0
100
AcDbBlockBegin
  2
SW_CENTERMARK22
 70
     0
 71
     0
 10
0.0
 20
0.0
 30
0.0
  3
SW_CENTERMARK22
  1

  0
LINE
  5
272
330
270
100
AcDbEntity
  8
0
  6
Continuous
 62
     7
100
AcDbLine
 10
10.9720883883
 20
7.0569041739
 30
0.0
 11
10.9720883883
 21
7.1553293707
 31
0.0
  0
LINE
  5
273
330
270
100
AcDbEntity
  8
0
  6
Continuous
 62
     7
100
AcDbLine
 10
10.9720883883
 20
7.0569041739
 30
0.0
 11
10.8736631914
 21
7.0569041739
 31
0.0
  0
LINE
  5
274
330
270
100
AcDbEntity
  8
0
  6
Continuous
 62
     7
100
AcDbLine
 10
10.9720883883
 20
7.0569041739
 30
0.0
 11
10.9720883883
 21
6.958478977
 31
0.0
  0
LINE
  5
275
330
270
100
AcDbEntity
  8
0
  6
Continuous
 62
     7
100
AcDbLine
 10
10.9720883883
 20
7.0569041739
 30
0.0
 11
11.0705135851
 21
7.0569041739
 31
0.0
  0
ENDBLK
  5
672
330
270
100
AcDbEntity
  8
0
100
AcDbBlockEnd
  0
BLOCK
  5
673
330
278
100
AcDbEntity
  8
0
100
AcDbBlockBegin
  2
SW_CENTERMARK23
 70
     0
 71
     0
 10
0.0
 20
0.0
 30
0.0
  3
SW_CENTERMARK23
  1

  0
LINE
  5
27A
330
278
100
AcDbEntity
  8
0
  6
Continuous
 62
     7
100
AcDbLine
 10
10.9720883883
 20
9.5776522054
 30
0.0
 11
10.9720883883
 21
9.6760774022
 31
0.0
  0
LINE
  5
27B
330
278
100
AcDbEntity
  8
0
  6
Continuous
 62
     7
100
AcDbLine
 10
10.9720883883
 20
9.5776522054
 30
0.0
 11
10.8736631914
 21
9.5776522054
 31
0.0
  0
LINE
  5
27C
330
278
100
AcDbEntity
  8
0
  6
Continuous
 62
     7
100
AcDbLine
 10
10.9720883883
 20
9.5776522054
 30
0.0
 11
10.9720883883
 21
9.4792270085
 31
0.0
  0
LINE
  5
27D
330
278
100
AcDbEntity
  8
0
  6
Continuous
 62
     7
100
AcDbLine
 10
10.9720883883
 20
9.5776522054
 30
0.0
 11
11.0705135851
 21
9.5776522054
 31
0.0
  0
ENDBLK
  5
674
330
278
100
AcDbEntity
  8
0
100
AcDbBlockEnd
  0
BLOCK
  5
675
330
280
100
AcDbEntity
  8
0
100
AcDbBlockBegin
  2
SW_CENTERMARK24
 70
     0
 71
     0
 10
0.0
 20
0.0
 30
0.0
  3
SW_CENTERMARK24
  1

  0
LINE
  5
282
330
280
100
AcDbEntity
  8
0
  6
Continuous
 62
     7
100
AcDbLine
 10
10.5496474434
 20
9.5776522054
 30
0.0
 11
10.5496474434
 21
9.6760774022
 31
0.0
  0
LINE
  5
283
330
280
100
AcDbEntity
  8
0
  6
Continuous
 62
     7
100
AcDbLine
 10
10.5496474434
 20
9.5776522054
 30
0.0
 11
10.4512222465
 21
9.5776522054
 31
0.0
  0
LINE
  5
284
330
280
100
AcDbEntity
  8
0
  6
Continuous
 62
     7
100
AcDbLine
 10
10.5496474434
 20
9.5776522054
 30
0.0
 11
10.5496474434
 21
9.4792270085
 31
0.0
  0
LINE
  5
285
330
280
100
AcDbEntity
  8
0
  6
Continuous
 62
     7
100
AcDbLine
 10
10.5496474434
 20
9.5776522054
 30
0.0
 11
10.6480726402
 21
9.5776522054
 31
0.0
  0
ENDBLK
  5
676
330
280
100
AcDbEntity
  8
0
100
AcDbBlockEnd
  0
BLOCK
  5
677
330
288
100
AcDbEntity
  8
0
100
AcDbBlockBegin
  2
SW_CENTERMARK25
 70
     0
 71
     0
 10
0.0
 20
0.0
 30
0.0
  3
SW_CENTERMARK25
  1

  0
LINE
  5
28A
330
288
100
AcDbEntity
  8
0
  6
Continuous
 62
     7
100
AcDbLine
 10
10.5496474434
 20
10.5119041739
 30
0.0
 11
10.5496474434
 21
10.6103293707
 31
0.0
  0
LINE
  5
28B
330
288
100
AcDbEntity
  8
0
  6
Continuous
 62
     7
100
AcDbLine
 10
10.5496474434
 20
10.5119041739
 30
0.0
 11
10.4512222465
 21
10.5119041739
 31
0.0
  0
LINE
  5
28C
330
288
100
AcDbEntity
  8
0
  6
Continuous
 62
     7
100
AcDbLine
 10
10.5496474434
 20
10.5119041739
 30
0.0
 11
10.5496474434
 21
10.413478977
 31
0.0
  0
LINE
  5
28D
330
288
100
AcDbEntity
  8
0
  6
Continuous
 62
     7
100
AcDbLine
 10
10.5496474434
 20
10.5119041739
 30
0.0
 11
10.6480726402
 21
10.5119041739
 31
0.0
  0
ENDBLK
  5
678
330
288
100
AcDbEntity
  8
0
100
AcDbBlockEnd
  0
BLOCK
  5
679
330
290
100
AcDbEntity
  8
0
100
AcDbBlockBegin
  2
SW_CENTERMARK26
 70
     0
 71
     0
 10
0.0
 20
0.0
 30
0.0
  3
SW_CENTERMARK26
  1

  0
LINE
  5
292
330
290
100
AcDbEntity
  8
0
  6
Continuous
 62
     7
100
AcDbLine
 10
10.9720883883
 20
10.5119041739
 30
0.0
 11
10.9720883883
 21
10.6103293707
 31
0.0
  0
LINE
  5
293
330
290
100
AcDbEntity
  8
0
  6
Continuous
 62
     7
100
AcDbLine
 10
10.9720883883
 20
10.5119041739
 30
0.0
 11
10.8736631914
 21
10.5119041739
 31
0.0
  0
LINE
  5
294
330
290
100
AcDbEntity
  8
0
  6
Continuous
 62
     7
100
AcDbLine
 10
10.9720883883
 20
10.5119041739
 30
0.0
 11
10.9720883883
 21
10.413478977
 31
0.0
  0
LINE
  5
295
330
290
100
AcDbEntity
  8
0
  6
Continuous
 62
     7
100
AcDbLine
 10
10.9720883883
 20
10.5119041739
 30
0.0
 11
11.0705135851
 21
10.5119041739
 31
0.0
  0
ENDBLK
  5
67A
330
290
100
AcDbEntity
  8
0
100
AcDbBlockEnd
  0
BLOCK
  5
67B
330
298
100
AcDbEntity
  8
0
100
AcDbBlockBegin
  2
SW_CENTERMARK27
 70
     0
 71
     0
 10
0.0
 20
0.0
 30
0.0
  3
SW_CENTERMARK27
  1

  0
LINE
  5
29A
330
298
100
AcDbEntity
  8
0
  6
Continuous
 62
     7
100
AcDbLine
 10
10.9101198843
 20
10.9012408668
 30
0.0
 11
10.9101198843
 21
10.9996660636
 31
0.0
  0
LINE
  5
29B
330
298
100
AcDbEntity
  8
0
  6
Continuous
 62
     7
100
AcDbLine
 10
10.9101198843
 20
10.9012408668
 30
0.0
 11
10.8116946875
 21
10.9012408668
 31
0.0
  0
LINE
  5
29C
330
298
100
AcDbEntity
  8
0
  6
Continuous
 62
     7
100
AcDbLine
 10
10.9101198843
 20
10.9012408668
 30
0.0
 11
10.9101198843
 21
10.8028156699
 31
0.0
  0
LINE
  5
29D
330
298
100
AcDbEntity
  8
0
  6
Continuous
 62
     7
100
AcDbLine
 10
10.9101198843
 20
10.9012408668
 30
0.0
 11
11.0085450812
 21
10.9012408668
 31
0.0
  0
ENDBLK
  5
67C
330
298
100
AcDbEntity
  8
0
100
AcDbBlockEnd
  0
BLOCK
  5
67D
330
2A0
100
AcDbEntity
  8
0
100
AcDbBlockBegin
  2
SW_CENTERMARK28
 70
     0
 71
     0
 10
0.0
 20
0.0
 30
0.0
  3
SW_CENTERMARK28
  1

  0
LINE
  5
2A2
330
2A0
100
AcDbEntity
  8
0
  6
Continuous
 62
     7
100
AcDbLine
 10
10.9101198843
 20
13.3512408668
 30
0.0
 11
10.9101198843
 21
13.4496660636
 31
0.0
  0
LINE
  5
2A3
330
2A0
100
AcDbEntity
  8
0
  6
Continuous
 62
     7
100
AcDbLine
 10
10.9101198843
 20
13.3512408668
 30
0.0
 11
10.8116946875
 21
13.3512408668
 31
0.0
  0
LINE
  5
2A4
330
2A0
100
AcDbEntity
  8
0
  6
Continuous
 62
     7
100
AcDbLine
 10
10.9101198843
 20
13.3512408668
 30
0.0
 11
10.9101198843
 21
13.2528156699
 31
0.0
  0
LINE
  5
2A5
330
2A0
100
AcDbEntity
  8
0
  6
Continuous
 62
     7
100
AcDbLine
 10
10.9101198843
 20
13.3512408668
 30
0.0
 11
11.0085450812
 21
13.3512408668
 31
0.0
  0
ENDBLK
  5
67E
330
2A0
100
AcDbEntity
  8
0
100
AcDbBlockEnd
  0
BLOCK
  5
67F
330
2A8
100
AcDbEntity
  8
0
100
AcDbBlockBegin
  2
SW_CENTERMARK29
 70
     0
 71
     0
 10
0.0
 20
0.0
 30
0.0
  3
SW_CENTERMARK29
  1

  0
LINE
  5
2AA
330
2A8
100
AcDbEntity
  8
0
  6
Continuous
 62
     7
100
AcDbLine
 10
10.75795453
 20
13.4162408668
 30
0.0
 11
10.75795453
 21
13.5146660636
 31
0.0
  0
LINE
  5
2AB
330
2A8
100
AcDbEntity
  8
0
  6
Continuous
 62
     7
100
AcDbLine
 10
10.75795453
 20
13.4162408668
 30
0.0
 11
10.6595293331
 21
13.4162408668
 31
0.0
  0
LINE
  5
2AC
330
2A8
100
AcDbEntity
  8
0
  6
Continuous
 62
     7
100
AcDbLine
 10
10.75795453
 20
13.4162408668
 30
0.0
 11
10.75795453
 21
13.3178156699
 31
0.0
  0
LINE
  5
2AD
330
2A8
100
AcDbEntity
  8
0
  6
Continuous
 62
     7
100
AcDbLine
 10
10.75795453
 20
13.4162408668
 30
0.0
 11
10.8563797268
 21
13.4162408668
 31
0.0
  0
ENDBLK
  5
680
330
2A8
100
AcDbEntity
  8
0
100
AcDbBlockEnd
  0
BLOCK
  5
681
330
2B0
100
AcDbEntity
  8
0
100
AcDbBlockBegin
  2
SW_CENTERMARK30
 70
     0
 71
     0
 10
0.0
 20
0.0
 30
0.0
  3
SW_CENTERMARK30
  1

  0
LINE
  5
2B2
330
2B0
100
AcDbEntity
  8
0
  6
Continuous
 62
     7
100
AcDbLine
 10
10.6057891757
 20
13.3512408668
 30
0.0
 11
10.6057891757
 21
13.4496660636
 31
0.0
  0
LINE
  5
2B3
330
2B0
100
AcDbEntity
  8
0
  6
Continuous
 62
     7
100
AcDbLine
 10
10.6057891757
 20
13.3512408668
 30
0.0
 11
10.5073639788
 21
13.3512408668
 31
0.0
  0
LINE
  5
2B4
330
2B0
100
AcDbEntity
  8
0
  6
Continuous
 62
     7
100
AcDbLine
 10
10.6057891757
 20
13.3512408668
 30
0.0
 11
10.6057891757
 21
13.2528156699
 31
0.0
  0
LINE
  5
2B5
330
2B0
100
AcDbEntity
  8
0
  6
Continuous
 62
     7
100
AcDbLine
 10
10.6057891757
 20
13.3512408668
 30
0.0
 11
10.7042143725
 21
13.3512408668
 31
0.0
  0
ENDBLK
  5
682
330
2B0
100
AcDbEntity
  8
0
100
AcDbBlockEnd
  0
BLOCK
  5
683
330
2B8
100
AcDbEntity
  8
0
100
AcDbBlockBegin
  2
SW_CENTERMARK31
 70
     0
 71
     0
 10
0.0
 20
0.0
 30
0.0
  3
SW_CENTERMARK31
  1

  0
LINE
  5
2BA
330
2B8
100
AcDbEntity
  8
0
  6
Continuous
 62
     7
100
AcDbLine
 10
10.6057891757
 20
10.9012408668
 30
0.0
 11
10.6057891757
 21
10.9996660636
 31
0.0
  0
LINE
  5
2BB
330
2B8
100
AcDbEntity
  8
0
  6
Continuous
 62
     7
100
AcDbLine
 10
10.6057891757
 20
10.9012408668
 30
0.0
 11
10.5073639788
 21
10.9012408668
 31
0.0
  0
LINE
  5
2BC
330
2B8
100
AcDbEntity
  8
0
  6
Continuous
 62
     7
100
AcDbLine
 10
10.6057891757
 20
10.9012408668
 30
0.0
 11
10.6057891757
 21
10.8028156699
 31
0.0
  0
LINE
  5
2BD
330
2B8
100
AcDbEntity
  8
0
  6
Continuous
 62
     7
100
AcDbLine
 10
10.6057891757
 20
10.9012408668
 30
0.0
 11
10.7042143725
 21
10.9012408668
 31
0.0
  0
ENDBLK
  5
684
330
2B8
100
AcDbEntity
  8
0
100
AcDbBlockEnd
  0
BLOCK
  5
685
330
2C0
100
AcDbEntity
  8
0
100
AcDbBlockBegin
  2
SW_CENTERMARK32
 70
     0
 71
     0
 10
0.0
 20
0.0
 30
0.0
  3
SW_CENTERMARK32
  1

  0
LINE
  5
2C2
330
2C0
100
AcDbEntity
  8
0
  6
Continuous
 62
     7
100
AcDbLine
 10
10.75795453
 20
10.8362408668
 30
0.0
 11
10.75795453
 21
10.9346660636
 31
0.0
  0
LINE
  5
2C3
330
2C0
100
AcDbEntity
  8
0
  6
Continuous
 62
     7
100
AcDbLine
 10
10.75795453
 20
10.8362408668
 30
0.0
 11
10.6595293331
 21
10.8362408668
 31
0.0
  0
LINE
  5
2C4
330
2C0
100
AcDbEntity
  8
0
  6
Continuous
 62
     7
100
AcDbLine
 10
10.75795453
 20
10.8362408668
 30
0.0
 11
10.75795453
 21
10.7378156699
 31
0.0
  0
LINE
  5
2C5
330
2C0
100
AcDbEntity
  8
0
  6
Continuous
 62
     7
100
AcDbLine
 10
10.75795453
 20
10.8362408668
 30
0.0
 11
10.8563797268
 21
10.8362408668
 31
0.0
  0
ENDBLK
  5
686
330
2C0
100
AcDbEntity
  8
0
100
AcDbBlockEnd
  0
BLOCK
  5
687
330
2C8
100
AcDbEntity
  8
0
100
AcDbBlockBegin
  2
SW_CENTERMARK33
 70
     0
 71
     0
 10
0.0
 20
0.0
 30
0.0
  3
SW_CENTERMARK33
  1

  0
LINE
  5
2CA
330
2C8
100
AcDbEntity
  8
0
  6
Continuous
 62
     7
100
AcDbLine
 10
10.6860647662
 20
7.4162408668
 30
0.0
 11
10.6860647662
 21
7.5146660636
 31
0.0
  0
LINE
  5
2CB
330
2C8
100
AcDbEntity
  8
0
  6
Continuous
 62
     7
100
AcDbLine
 10
10.6860647662
 20
7.4162408668
 30
0.0
 11
10.5876395694
 21
7.4162408668
 31
0.0
  0
LINE
  5
2CC
330
2C8
100
AcDbEntity
  8
0
  6
Continuous
 62
     7
100
AcDbLine
 10
10.6860647662
 20
7.4162408668
 30
0.0
 11
10.6860647662
 21
7.3178156699
 31
0.0
  0
LINE
  5
2CD
330
2C8
100
AcDbEntity
  8
0
  6
Continuous
 62
     7
100
AcDbLine
 10
10.6860647662
 20
7.4162408668
 30
0.0
 11
10.7844899631
 21
7.4162408668
 31
0.0
  0
LINE
  5
2CE
330
2C8
100
AcDbEntity
  8
0
  6
CENTERX2
 62
     7
100
AcDbLine
 10
10.6860647662
 20
7.6130912605
 30
0.0
 11
10.6860647662
 21
7.614487156
 31
0.0
  0
LINE
  5
2CF
330
2C8
100
AcDbEntity
  8
0
  6
CENTERX2
 62
     7
100
AcDbLine
 10
10.4892143725
 20
7.4162408668
 30
0.0
 11
10.487818477
 21
7.4162408668
 31
0.0
  0
LINE
  5
2D0
330
2C8
100
AcDbEntity
  8
0
  6
CENTERX2
 62
     7
100
AcDbLine
 10
10.6860647662
 20
7.2193904731
 30
0.0
 11
10.6860647662
 21
7.2179945776
 31
0.0
  0
LINE
  5
2D1
330
2C8
100
AcDbEntity
  8
0
  6
CENTERX2
 62
     7
100
AcDbLine
 10
10.8829151599
 20
7.4162408668
 30
0.0
 11
10.8843110554
 21
7.4162408668
 31
0.0
  0
ENDBLK
  5
688
330
2C8
100
AcDbEntity
  8
0
100
AcDbBlockEnd
  0
BLOCK
  5
689
330
2D4
100
AcDbEntity
  8
0
100
AcDbBlockBegin
  2
SW_CENTERMARK34
 70
     0
 71
     0
 10
0.0
 20
0.0
 30
0.0
  3
SW_CENTERMARK34
  1

  0
LINE
  5
2D6
330
2D4
100
AcDbEntity
  8
0
  6
Continuous
 62
     7
100
AcDbLine
 10
11.3059385054
 20
12.7786306306
 30
0.0
 11
11.3059385054
 21
12.8770558274
 31
0.0
  0
LINE
  5
2D7
330
2D4
100
AcDbEntity
  8
0
  6
Continuous
 62
     7
100
AcDbLine
 10
11.3059385054
 20
12.7786306306
 30
0.0
 11
11.2075133086
 21
12.7786306306
 31
0.0
  0
LINE
  5
2D8
330
2D4
100
AcDbEntity
  8
0
  6
Continuous
 62
     7
100
AcDbLine
 10
11.3059385054
 20
12.7786306306
 30
0.0
 11
11.3059385054
 21
12.6802054337
 31
0.0
  0
LINE
  5
2D9
330
2D4
100
AcDbEntity
  8
0
  6
Continuous
 62
     7
100
AcDbLine
 10
11.3059385054
 20
12.7786306306
 30
0.0
 11
11.4043637023
 21
12.7786306306
 31
0.0
  0
LINE
  5
2DA
330
2D4
100
AcDbEntity
  8
0
  6
CENTERX2
 62
     7
100
AcDbLine
 10
11.3059385054
 20
12.9754810243
 30
0.0
 11
11.3059385054
 21
13.0100558274
 31
0.0
  0
LINE
  5
2DB
330
2D4
100
AcDbEntity
  8
0
  6
CENTERX2
 62
     7
100
AcDbLine
 10
11.3059385054
 20
12.5817802369
 30
0.0
 11
11.3059385054
 21
12.5472054337
 31
0.0
  0
LINE
  5
2DC
330
2D4
100
AcDbEntity
  8
0
  6
Continuous
 62
     7
100
AcDbLine
 10
11.3059385054
 20
13.3298117329
 30
0.0
 11
11.2075133086
 21
13.3298117329
 31
0.0
  0
LINE
  5
2DD
330
2D4
100
AcDbEntity
  8
0
  6
Continuous
 62
     7
100
AcDbLine
 10
11.3059385054
 20
13.3298117329
 30
0.0
 11
11.3059385054
 21
13.2313865361
 31
0.0
  0
LINE
  5
2DE
330
2D4
100
AcDbEntity
  8
0
  6
Continuous
 62
     7
100
AcDbLine
 10
11.3059385054
 20
13.3298117329
 30
0.0
 11
11.4043637023
 21
13.3298117329
 31
0.0
  0
LINE
  5
2DF
330
2D4
100
AcDbEntity
  8
0
  6
Continuous
 62
     7
100
AcDbLine
 10
11.3059385054
 20
13.3298117329
 30
0.0
 11
11.3059385054
 21
13.4282369298
 31
0.0
  0
LINE
  5
2E0
330
2D4
100
AcDbEntity
  8
0
  6
CENTERX2
 62
     7
100
AcDbLine
 10
11.1090881117
 20
13.3298117329
 30
0.0
 11
11.0745133086
 21
13.3298117329
 31
0.0
  0
LINE
  5
2E1
330
2D4
100
AcDbEntity
  8
0
  6
CENTERX2
 62
     7
100
AcDbLine
 10
11.5027888991
 20
13.3298117329
 30
0.0
 11
11.5373637023
 21
13.3298117329
 31
0.0
  0
LINE
  5
2E2
330
2D4
100
AcDbEntity
  8
0
  6
CENTERX2
 62
     7
100
AcDbLine
 10
11.3059385054
 20
13.5266621266
 30
0.0
 11
11.3059385054
 21
13.5612369298
 31
0.0
  0
LINE
  5
2E3
330
2D4
100
AcDbEntity
  8
0
  6
Continuous
 62
     7
100
AcDbLine
 10
11.3059385054
 20
12.2274495282
 30
0.0
 11
11.2075133086
 21
12.2274495282
 31
0.0
  0
LINE
  5
2E4
330
2D4
100
AcDbEntity
  8
0
  6
Continuous
 62
     7
100
AcDbLine
 10
11.3059385054
 20
12.2274495282
 30
0.0
 11
11.3059385054
 21
12.1290243314
 31
0.0
  0
LINE
  5
2E5
330
2D4
100
AcDbEntity
  8
0
  6
Continuous
 62
     7
100
AcDbLine
 10
11.3059385054
 20
12.2274495282
 30
0.0
 11
11.4043637023
 21
12.2274495282
 31
0.0
  0
LINE
  5
2E6
330
2D4
100
AcDbEntity
  8
0
  6
Continuous
 62
     7
100
AcDbLine
 10
11.3059385054
 20
12.2274495282
 30
0.0
 11
11.3059385054
 21
12.3258747251
 31
0.0
  0
LINE
  5
2E7
330
2D4
100
AcDbEntity
  8
0
  6
CENTERX2
 62
     7
100
AcDbLine
 10
11.1090881117
 20
12.2274495282
 30
0.0
 11
11.0745133086
 21
12.2274495282
 31
0.0
  0
LINE
  5
2E8
330
2D4
100
AcDbEntity
  8
0
  6
CENTERX2
 62
     7
100
AcDbLine
 10
11.5027888991
 20
12.2274495282
 30
0.0
 11
11.5373637023
 21
12.2274495282
 31
0.0
  0
LINE
  5
2E9
330
2D4
100
AcDbEntity
  8
0
  6
Continuous
 62
     7
100
AcDbLine
 10
11.3059385054
 20
11.6762684258
 30
0.0
 11
11.2075133086
 21
11.6762684258
 31
0.0
  0
LINE
  5
2EA
330
2D4
100
AcDbEntity
  8
0
  6
Continuous
 62
     7
100
AcDbLine
 10
11.3059385054
 20
11.6762684258
 30
0.0
 11
11.3059385054
 21
11.577843229
 31
0.0
  0
LINE
  5
2EB
330
2D4
100
AcDbEntity
  8
0
  6
Continuous
 62
     7
100
AcDbLine
 10
11.3059385054
 20
11.6762684258
 30
0.0
 11
11.4043637023
 21
11.6762684258
 31
0.0
  0
LINE
  5
2EC
330
2D4
100
AcDbEntity
  8
0
  6
Continuous
 62
     7
100
AcDbLine
 10
11.3059385054
 20
11.6762684258
 30
0.0
 11
11.3059385054
 21
11.7746936227
 31
0.0
  0
LINE
  5
2ED
330
2D4
100
AcDbEntity
  8
0
  6
CENTERX2
 62
     7
100
AcDbLine
 10
11.1090881117
 20
11.6762684258
 30
0.0
 11
11.0745133086
 21
11.6762684258
 31
0.0
  0
LINE
  5
2EE
330
2D4
100
AcDbEntity
  8
0
  6
CENTERX2
 62
     7
100
AcDbLine
 10
11.5027888991
 20
11.6762684258
 30
0.0
 11
11.5373637023
 21
11.6762684258
 31
0.0
  0
LINE
  5
2EF
330
2D4
100
AcDbEntity
  8
0
  6
Continuous
 62
     7
100
AcDbLine
 10
11.3059385054
 20
11.1250873235
 30
0.0
 11
11.2075133086
 21
11.1250873235
 31
0.0
  0
LINE
  5
2F0
330
2D4
100
AcDbEntity
  8
0
  6
Continuous
 62
     7
100
AcDbLine
 10
11.3059385054
 20
11.1250873235
 30
0.0
 11
11.3059385054
 21
11.0266621266
 31
0.0
  0
LINE
  5
2F1
330
2D4
100
AcDbEntity
  8
0
  6
Continuous
 62
     7
100
AcDbLine
 10
11.3059385054
 20
11.1250873235
 30
0.0
 11
11.4043637023
 21
11.1250873235
 31
0.0
  0
LINE
  5
2F2
330
2D4
100
AcDbEntity
  8
0
  6
Continuous
 62
     7
100
AcDbLine
 10
11.3059385054
 20
11.1250873235
 30
0.0
 11
11.3059385054
 21
11.2235125203
 31
0.0
  0
LINE
  5
2F3
330
2D4
100
AcDbEntity
  8
0
  6
CENTERX2
 62
     7
100
AcDbLine
 10
11.1090881117
 20
11.1250873235
 30
0.0
 11
11.0745133086
 21
11.1250873235
 31
0.0
  0
LINE
  5
2F4
330
2D4
100
AcDbEntity
  8
0
  6
CENTERX2
 62
     7
100
AcDbLine
 10
11.5027888991
 20
11.1250873235
 30
0.0
 11
11.5373637023
 21
11.1250873235
 31
0.0
  0
LINE
  5
2F5
330
2D4
100
AcDbEntity
  8
0
  6
Continuous
 62
     7
100
AcDbLine
 10
11.3059385054
 20
10.5739062211
 30
0.0
 11
11.2075133086
 21
10.5739062211
 31
0.0
  0
LINE
  5
2F6
330
2D4
100
AcDbEntity
  8
0
  6
Continuous
 62
     7
100
AcDbLine
 10
11.3059385054
 20
10.5739062211
 30
0.0
 11
11.3059385054
 21
10.4754810243
 31
0.0
  0
LINE
  5
2F7
330
2D4
100
AcDbEntity
  8
0
  6
Continuous
 62
     7
100
AcDbLine
 10
11.3059385054
 20
10.5739062211
 30
0.0
 11
11.4043637023
 21
10.5739062211
 31
0.0
  0
LINE
  5
2F8
330
2D4
100
AcDbEntity
  8
0
  6
Continuous
 62
     7
100
AcDbLine
 10
11.3059385054
 20
10.5739062211
 30
0.0
 11
11.3059385054
 21
10.672331418
 31
0.0
  0
LINE
  5
2F9
330
2D4
100
AcDbEntity
  8
0
  6
CENTERX2
 62
     7
100
AcDbLine
 10
11.1090881117
 20
10.5739062211
 30
0.0
 11
11.0745133086
 21
10.5739062211
 31
0.0
  0
LINE
  5
2FA
330
2D4
100
AcDbEntity
  8
0
  6
CENTERX2
 62
     7
100
AcDbLine
 10
11.5027888991
 20
10.5739062211
 30
0.0
 11
11.5373637023
 21
10.5739062211
 31
0.0
  0
LINE
  5
2FB
330
2D4
100
AcDbEntity
  8
0
  6
Continuous
 62
     7
100
AcDbLine
 10
11.3059385054
 20
10.0227251188
 30
0.0
 11
11.2075133086
 21
10.0227251188
 31
0.0
  0
LINE
  5
2FC
330
2D4
100
AcDbEntity
  8
0
  6
Continuous
 62
     7
100
AcDbLine
 10
11.3059385054
 20
10.0227251188
 30
0.0
 11
11.3059385054
 21
9.9242999219
 31
0.0
  0
LINE
  5
2FD
330
2D4
100
AcDbEntity
  8
0
  6
Continuous
 62
     7
100
AcDbLine
 10
11.3059385054
 20
10.0227251188
 30
0.0
 11
11.4043637023
 21
10.0227251188
 31
0.0
  0
LINE
  5
2FE
330
2D4
100
AcDbEntity
  8
0
  6
Continuous
 62
     7
100
AcDbLine
 10
11.3059385054
 20
10.0227251188
 30
0.0
 11
11.3059385054
 21
10.1211503156
 31
0.0
  0
LINE
  5
2FF
330
2D4
100
AcDbEntity
  8
0
  6
CENTERX2
 62
     7
100
AcDbLine
 10
11.1090881117
 20
10.0227251188
 30
0.0
 11
11.0745133086
 21
10.0227251188
 31
0.0
  0
LINE
  5
300
330
2D4
100
AcDbEntity
  8
0
  6
CENTERX2
 62
     7
100
AcDbLine
 10
11.5027888991
 20
10.0227251188
 30
0.0
 11
11.5373637023
 21
10.0227251188
 31
0.0
  0
LINE
  5
301
330
2D4
100
AcDbEntity
  8
0
  6
Continuous
 62
     7
100
AcDbLine
 10
11.3059385054
 20
9.4715440164
 30
0.0
 11
11.2075133086
 21
9.4715440164
 31
0.0
  0
LINE
  5
302
330
2D4
100
AcDbEntity
  8
0
  6
Continuous
 62
     7
100
AcDbLine
 10
11.3059385054
 20
9.4715440164
 30
0.0
 11
11.3059385054
 21
9.3731188195
 31
0.0
  0
LINE
  5
303
330
2D4
100
AcDbEntity
  8
0
  6
Continuous
 62
     7
100
AcDbLine
 10
11.3059385054
 20
9.4715440164
 30
0.0
 11
11.4043637023
 21
9.4715440164
 31
0.0
  0
LINE
  5
304
330
2D4
100
AcDbEntity
  8
0
  6
Continuous
 62
     7
100
AcDbLine
 10
11.3059385054
 20
9.4715440164
 30
0.0
 11
11.3059385054
 21
9.5699692132
 31
0.0
  0
LINE
  5
305
330
2D4
100
AcDbEntity
  8
0
  6
CENTERX2
 62
     7
100
AcDbLine
 10
11.1090881117
 20
9.4715440164
 30
0.0
 11
11.0745133086
 21
9.4715440164
 31
0.0
  0
LINE
  5
306
330
2D4
100
AcDbEntity
  8
0
  6
CENTERX2
 62
     7
100
AcDbLine
 10
11.5027888991
 20
9.4715440164
 30
0.0
 11
11.5373637023
 21
9.4715440164
 31
0.0
  0
LINE
  5
307
330
2D4
100
AcDbEntity
  8
0
  6
Continuous
 62
     7
100
AcDbLine
 10
11.3059385054
 20
8.920362914
 30
0.0
 11
11.2075133086
 21
8.920362914
 31
0.0
  0
LINE
  5
308
330
2D4
100
AcDbEntity
  8
0
  6
Continuous
 62
     7
100
AcDbLine
 10
11.3059385054
 20
8.920362914
 30
0.0
 11
11.3059385054
 21
8.8219377172
 31
0.0
  0
LINE
  5
309
330
2D4
100
AcDbEntity
  8
0
  6
Continuous
 62
     7
100
AcDbLine
 10
11.3059385054
 20
8.920362914
 30
0.0
 11
11.4043637023
 21
8.920362914
 31
0.0
  0
LINE
  5
30A
330
2D4
100
AcDbEntity
  8
0
  6
Continuous
 62
     7
100
AcDbLine
 10
11.3059385054
 20
8.920362914
 30
0.0
 11
11.3059385054
 21
9.0187881109
 31
0.0
  0
LINE
  5
30B
330
2D4
100
AcDbEntity
  8
0
  6
CENTERX2
 62
     7
100
AcDbLine
 10
11.1090881117
 20
8.920362914
 30
0.0
 11
11.0745133086
 21
8.920362914
 31
0.0
  0
LINE
  5
30C
330
2D4
100
AcDbEntity
  8
0
  6
CENTERX2
 62
     7
100
AcDbLine
 10
11.5027888991
 20
8.920362914
 30
0.0
 11
11.5373637023
 21
8.920362914
 31
0.0
  0
LINE
  5
30D
330
2D4
100
AcDbEntity
  8
0
  6
Continuous
 62
     7
100
AcDbLine
 10
11.3059385054
 20
8.3691818117
 30
0.0
 11
11.2075133086
 21
8.3691818117
 31
0.0
  0
LINE
  5
30E
330
2D4
100
AcDbEntity
  8
0
  6
Continuous
 62
     7
100
AcDbLine
 10
11.3059385054
 20
8.3691818117
 30
0.0
 11
11.3059385054
 21
8.2707566148
 31
0.0
  0
LINE
  5
30F
330
2D4
100
AcDbEntity
  8
0
  6
Continuous
 62
     7
100
AcDbLine
 10
11.3059385054
 20
8.3691818117
 30
0.0
 11
11.4043637023
 21
8.3691818117
 31
0.0
  0
LINE
  5
310
330
2D4
100
AcDbEntity
  8
0
  6
Continuous
 62
     7
100
AcDbLine
 10
11.3059385054
 20
8.3691818117
 30
0.0
 11
11.3059385054
 21
8.4676070085
 31
0.0
  0
LINE
  5
311
330
2D4
100
AcDbEntity
  8
0
  6
CENTERX2
 62
     7
100
AcDbLine
 10
11.1090881117
 20
8.3691818117
 30
0.0
 11
11.0745133086
 21
8.3691818117
 31
0.0
  0
LINE
  5
312
330
2D4
100
AcDbEntity
  8
0
  6
CENTERX2
 62
     7
100
AcDbLine
 10
11.5027888991
 20
8.3691818117
 30
0.0
 11
11.5373637023
 21
8.3691818117
 31
0.0
  0
LINE
  5
313
330
2D4
100
AcDbEntity
  8
0
  6
Continuous
 62
     7
100
AcDbLine
 10
11.3059385054
 20
7.8180007093
 30
0.0
 11
11.2075133086
 21
7.8180007093
 31
0.0
  0
LINE
  5
314
330
2D4
100
AcDbEntity
  8
0
  6
Continuous
 62
     7
100
AcDbLine
 10
11.3059385054
 20
7.8180007093
 30
0.0
 11
11.3059385054
 21
7.7195755125
 31
0.0
  0
LINE
  5
315
330
2D4
100
AcDbEntity
  8
0
  6
Continuous
 62
     7
100
AcDbLine
 10
11.3059385054
 20
7.8180007093
 30
0.0
 11
11.4043637023
 21
7.8180007093
 31
0.0
  0
LINE
  5
316
330
2D4
100
AcDbEntity
  8
0
  6
Continuous
 62
     7
100
AcDbLine
 10
11.3059385054
 20
7.8180007093
 30
0.0
 11
11.3059385054
 21
7.9164259062
 31
0.0
  0
LINE
  5
317
330
2D4
100
AcDbEntity
  8
0
  6
CENTERX2
 62
     7
100
AcDbLine
 10
11.1090881117
 20
7.8180007093
 30
0.0
 11
11.0745133086
 21
7.8180007093
 31
0.0
  0
LINE
  5
318
330
2D4
100
AcDbEntity
  8
0
  6
CENTERX2
 62
     7
100
AcDbLine
 10
11.5027888991
 20
7.8180007093
 30
0.0
 11
11.5373637023
 21
7.8180007093
 31
0.0
  0
LINE
  5
319
330
2D4
100
AcDbEntity
  8
0
  6
Continuous
 62
     7
100
AcDbLine
 10
11.3059385054
 20
7.2668196069
 30
0.0
 11
11.2075133086
 21
7.2668196069
 31
0.0
  0
LINE
  5
31A
330
2D4
100
AcDbEntity
  8
0
  6
Continuous
 62
     7
100
AcDbLine
 10
11.3059385054
 20
7.2668196069
 30
0.0
 11
11.3059385054
 21
7.1683944101
 31
0.0
  0
LINE
  5
31B
330
2D4
100
AcDbEntity
  8
0
  6
Continuous
 62
     7
100
AcDbLine
 10
11.3059385054
 20
7.2668196069
 30
0.0
 11
11.4043637023
 21
7.2668196069
 31
0.0
  0
LINE
  5
31C
330
2D4
100
AcDbEntity
  8
0
  6
Continuous
 62
     7
100
AcDbLine
 10
11.3059385054
 20
7.2668196069
 30
0.0
 11
11.3059385054
 21
7.3652448038
 31
0.0
  0
LINE
  5
31D
330
2D4
100
AcDbEntity
  8
0
  6
CENTERX2
 62
     7
100
AcDbLine
 10
11.1090881117
 20
7.2668196069
 30
0.0
 11
11.0745133086
 21
7.2668196069
 31
0.0
  0
LINE
  5
31E
330
2D4
100
AcDbEntity
  8
0
  6
CENTERX2
 62
     7
100
AcDbLine
 10
11.5027888991
 20
7.2668196069
 30
0.0
 11
11.5373637023
 21
7.2668196069
 31
0.0
  0
LINE
  5
31F
330
2D4
100
AcDbEntity
  8
0
  6
Continuous
 62
     7
100
AcDbLine
 10
11.3059385054
 20
6.7156385046
 30
0.0
 11
11.2075133086
 21
6.7156385046
 31
0.0
  0
LINE
  5
320
330
2D4
100
AcDbEntity
  8
0
  6
Continuous
 62
     7
100
AcDbLine
 10
11.3059385054
 20
6.7156385046
 30
0.0
 11
11.3059385054
 21
6.6172133077
 31
0.0
  0
LINE
  5
321
330
2D4
100
AcDbEntity
  8
0
  6
Continuous
 62
     7
100
AcDbLine
 10
11.3059385054
 20
6.7156385046
 30
0.0
 11
11.4043637023
 21
6.7156385046
 31
0.0
  0
LINE
  5
322
330
2D4
100
AcDbEntity
  8
0
  6
Continuous
 62
     7
100
AcDbLine
 10
11.3059385054
 20
6.7156385046
 30
0.0
 11
11.3059385054
 21
6.8140637014
 31
0.0
  0
LINE
  5
323
330
2D4
100
AcDbEntity
  8
0
  6
CENTERX2
 62
     7
100
AcDbLine
 10
11.1090881117
 20
6.7156385046
 30
0.0
 11
11.0745133086
 21
6.7156385046
 31
0.0
  0
LINE
  5
324
330
2D4
100
AcDbEntity
  8
0
  6
CENTERX2
 62
     7
100
AcDbLine
 10
11.5027888991
 20
6.7156385046
 30
0.0
 11
11.5373637023
 21
6.7156385046
 31
0.0
  0
LINE
  5
325
330
2D4
100
AcDbEntity
  8
0
  6
Continuous
 62
     7
100
AcDbLine
 10
11.3059385054
 20
6.1644574022
 30
0.0
 11
11.2075133086
 21
6.1644574022
 31
0.0
  0
LINE
  5
326
330
2D4
100
AcDbEntity
  8
0
  6
Continuous
 62
     7
100
AcDbLine
 10
11.3059385054
 20
6.1644574022
 30
0.0
 11
11.3059385054
 21
6.0660322054
 31
0.0
  0
LINE
  5
327
330
2D4
100
AcDbEntity
  8
0
  6
Continuous
 62
     7
100
AcDbLine
 10
11.3059385054
 20
6.1644574022
 30
0.0
 11
11.4043637023
 21
6.1644574022
 31
0.0
  0
LINE
  5
328
330
2D4
100
AcDbEntity
  8
0
  6
Continuous
 62
     7
100
AcDbLine
 10
11.3059385054
 20
6.1644574022
 30
0.0
 11
11.3059385054
 21
6.2628825991
 31
0.0
  0
LINE
  5
329
330
2D4
100
AcDbEntity
  8
0
  6
CENTERX2
 62
     7
100
AcDbLine
 10
11.1090881117
 20
6.1644574022
 30
0.0
 11
11.0745133086
 21
6.1644574022
 31
0.0
  0
LINE
  5
32A
330
2D4
100
AcDbEntity
  8
0
  6
CENTERX2
 62
     7
100
AcDbLine
 10
11.3059385054
 20
5.9676070085
 30
0.0
 11
11.3059385054
 21
5.9330322054
 31
0.0
  0
LINE
  5
32B
330
2D4
100
AcDbEntity
  8
0
  6
CENTERX2
 62
     7
100
AcDbLine
 10
11.5027888991
 20
6.1644574022
 30
0.0
 11
11.5373637023
 21
6.1644574022
 31
0.0
  0
LINE
  5
32C
330
2D4
100
AcDbEntity
  8
0
  6
CENTERX2
 62
     7
100
AcDbLine
 10
11.3059385054
 20
6.3613077959
 30
0.0
 11
11.3059385054
 21
6.5187881109
 31
0.0
  0
LINE
  5
32D
330
2D4
100
AcDbEntity
  8
0
  6
CENTERX2
 62
     7
100
AcDbLine
 10
11.3059385054
 20
6.9124888983
 30
0.0
 11
11.3059385054
 21
7.0699692132
 31
0.0
  0
LINE
  5
32E
330
2D4
100
AcDbEntity
  8
0
  6
CENTERX2
 62
     7
100
AcDbLine
 10
11.3059385054
 20
7.4636700006
 30
0.0
 11
11.3059385054
 21
7.6211503156
 31
0.0
  0
LINE
  5
32F
330
2D4
100
AcDbEntity
  8
0
  6
CENTERX2
 62
     7
100
AcDbLine
 10
11.3059385054
 20
8.014851103
 30
0.0
 11
11.3059385054
 21
8.172331418
 31
0.0
  0
LINE
  5
330
330
2D4
100
AcDbEntity
  8
0
  6
CENTERX2
 62
     7
100
AcDbLine
 10
11.3059385054
 20
8.5660322054
 30
0.0
 11
11.3059385054
 21
8.7235125203
 31
0.0
  0
LINE
  5
331
330
2D4
100
AcDbEntity
  8
0
  6
CENTERX2
 62
     7
100
AcDbLine
 10
11.3059385054
 20
9.1172133077
 30
0.0
 11
11.3059385054
 21
9.2746936227
 31
0.0
  0
LINE
  5
332
330
2D4
100
AcDbEntity
  8
0
  6
CENTERX2
 62
     7
100
AcDbLine
 10
11.3059385054
 20
9.6683944101
 30
0.0
 11
11.3059385054
 21
9.8258747251
 31
0.0
  0
LINE
  5
333
330
2D4
100
AcDbEntity
  8
0
  6
CENTERX2
 62
     7
100
AcDbLine
 10
11.3059385054
 20
10.2195755125
 30
0.0
 11
11.3059385054
 21
10.3770558274
 31
0.0
  0
LINE
  5
334
330
2D4
100
AcDbEntity
  8
0
  6
CENTERX2
 62
     7
100
AcDbLine
 10
11.3059385054
 20
10.7707566148
 30
0.0
 11
11.3059385054
 21
10.9282369298
 31
0.0
  0
LINE
  5
335
330
2D4
100
AcDbEntity
  8
0
  6
CENTERX2
 62
     7
100
AcDbLine
 10
11.3059385054
 20
11.3219377172
 30
0.0
 11
11.3059385054
 21
11.4794180321
 31
0.0
  0
LINE
  5
336
330
2D4
100
AcDbEntity
  8
0
  6
CENTERX2
 62
     7
100
AcDbLine
 10
11.3059385054
 20
11.8731188195
 30
0.0
 11
11.3059385054
 21
12.0305991345
 31
0.0
  0
LINE
  5
337
330
2D4
100
AcDbEntity
  8
0
  6
CENTERX2
 62
     7
100
AcDbLine
 10
11.3059385054
 20
12.4242999219
 30
0.0
 11
11.3059385054
 21
12.5817802369
 31
0.0
  0
LINE
  5
338
330
2D4
100
AcDbEntity
  8
0
  6
CENTERX2
 62
     7
100
AcDbLine
 10
11.3059385054
 20
12.9754810243
 30
0.0
 11
11.3059385054
 21
13.1329613392
 31
0.0
  0
ENDBLK
  5
68A
330
2D4
100
AcDbEntity
  8
0
100
AcDbBlockEnd
  0
ENDSEC
  0
SECTION
  2
ENTITIES
  0
INSERT
  5
A7
330
1F
100
AcDbEntity
  8
0
100
AcDbBlockReference
  2
NOTE29
 10
15.6975
 20
-9.5375
 30
0.0
 50
90.0
  0
INSERT
  5
AB
330
1F
100
AcDbEntity
  8
0
100
AcDbBlockReference
  2
NOTE30
 10
15.6975
 20
-9.5375
 30
0.0
 50
90.0
  0
INSERT
  5
AF
330
1F
100
AcDbEntity
  8
0
100
AcDbBlockReference
  2
NOTE31
 10
15.6975
 20
-9.5375
 30
0.0
 50
90.0
  0
INSERT
  5
B3
330
1F
100
AcDbEntity
  8
0
100
AcDbBlockReference
  2
NOTE32
 10
15.6975
 20
-9.5375
 30
0.0
 50
90.0
  0
INSERT
  5
B7
330
1F
100
AcDbEntity
  8
0
100
AcDbBlockReference
  2
NOTE33
 10
15.6975
 20
-9.5375
 30
0.0
 50
90.0
  0
INSERT
  5
BB
330
1F
100
AcDbEntity
  8
0
100
AcDbBlockReference
  2
NOTE34
 10
15.6975
 20
-9.5375
 30
0.0
 50
90.0
  0
INSERT
  5
BF
330
1F
100
AcDbEntity
  8
0
100
AcDbBlockReference
  2
NOTE35
 10
15.6975
 20
-9.5375
 30
0.0
 50
90.0
  0
INSERT
  5
C3
330
1F
100
AcDbEntity
  8
0
100
AcDbBlockReference
  2
NOTE36
 10
15.6975
 20
-9.5375
 30
0.0
 50
90.0
  0
INSERT
  5
C7
330
1F
100
AcDbEntity
  8
0
100
AcDbBlockReference
  2
NOTE37
 10
15.6975
 20
-9.5375
 30
0.0
 50
90.0
  0
INSERT
  5
CB
330
1F
100
AcDbEntity
  8
0
100
AcDbBlockReference
  2
NOTE38
 10
15.6975
 20
-9.5375
 30
0.0
 50
90.0
  0
INSERT
  5
CF
330
1F
100
AcDbEntity
  8
0
100
AcDbBlockReference
  2
NOTE39
 10
15.6975
 20
-9.5375
 30
0.0
 50
90.0
  0
INSERT
  5
D3
330
1F
100
AcDbEntity
  8
0
100
AcDbBlockReference
  2
NOTE40
 10
15.6975
 20
-9.5375
 30
0.0
 50
90.0
  0
INSERT
  5
E4
330
1F
100
AcDbEntity
  8
0
100
AcDbBlockReference
  2
NOTE49
 10
15.6975
 20
-9.5375
 30
0.0
 50
90.0
  0
INSERT
  5
F0
330
1F
100
AcDbEntity
  8
0
100
AcDbBlockReference
  2
NOTE58
 10
15.6975
 20
-9.5375
 30
0.0
 50
90.0
  0
INSERT
  5
F4
330
1F
100
AcDbEntity
  8
0
100
AcDbBlockReference
  2
NOTE59
 10
15.6975
 20
-9.5375
 30
0.0
 50
90.0
  0
CIRCLE
  5
159
330
1F
100
AcDbEntity
  8
0
  6
Continuous
 62
     7
100
AcDbCircle
 10
6.947509133200001
 20
1.28045453
 30
0.0
 40
0.1875
  0
CIRCLE
  5
15A
330
1F
100
AcDbEntity
  8
0
  6
Continuous
 62
     7
100
AcDbCircle
 10
7.822509133200001
 20
1.28045453
 30
0.0
 40
0.1874999999999991
  0
LINE
  5
15F
330
1F
100
AcDbEntity
  8
0
  6
Continuous
 62
     7
100
AcDbLine
 10
9.8688818653
 20
1.55645453
 30
0.0
 11
9.8688818653
 21
1.04045453
 31
0.0
  0
ARC
  5
160
330
1F
100
AcDbEntity
  8
0
  6
Continuous
 62
     7
100
AcDbCircle
 10
9.893881865300001
 20
1.04045453
 30
0.0
 40
0.0250000000000004
100
AcDbArc
 50
180.0
 51
270.0
  0
LINE
  5
161
330
1F
100
AcDbEntity
  8
0
  6
Continuous
 62
     7
100
AcDbLine
 10
9.893881865300001
 20
1.01545453
 30
0.0
 11
10.5078818653
 21
1.01545453
 31
0.0
  0
ARC
  5
162
330
1F
100
AcDbEntity
  8
0
  6
Continuous
 62
     7
100
AcDbCircle
 10
10.5078818653
 20
1.04045453
 30
0.0
 40
0.0250000000000004
100
AcDbArc
 50
270.0
 51
360.0
  0
LINE
  5
163
330
1F
100
AcDbEntity
  8
0
  6
Continuous
 62
     7
100
AcDbLine
 10
10.5328818653
 20
1.04045453
 30
0.0
 11
10.5328818653
 21
1.55645453
 31
0.0
  0
ARC
  5
164
330
1F
100
AcDbEntity
  8
0
  6
Continuous
 62
     7
100
AcDbCircle
 10
10.5078818653
 20
1.55645453
 30
0.0
 40
0.0249999999999986
100
AcDbArc
 50
0.0
 51
90.0
  0
LINE
  5
165
330
1F
100
AcDbEntity
  8
0
  6
Continuous
 62
     7
100
AcDbLine
 10
10.5078818653
 20
1.58145453
 30
0.0
 11
9.893881865300001
 21
1.58145453
 31
0.0
  0
ARC
  5
166
330
1F
100
AcDbEntity
  8
0
  6
Continuous
 62
     7
100
AcDbCircle
 10
9.893881865300001
 20
1.55645453
 30
0.0
 40
0.0250000000000004
100
AcDbArc
 50
90.0
 51
180.0
  0
LINE
  5
167
330
1F
100
AcDbEntity
  8
0
  6
Continuous
 62
     7
100
AcDbLine
 10
9.606097794600002
 20
1.4595883883
 30
0.0
 11
8.6718458261
 21
1.4595883883
 31
0.0
  0
ARC
  5
168
330
1F
100
AcDbEntity
  8
0
  6
Continuous
 62
     7
100
AcDbCircle
 10
8.6718458261
 20
1.4345883883
 30
0.0
 40
0.0250000000000004
100
AcDbArc
 50
90.0
 51
180.0
  0
LINE
  5
169
330
1F
100
AcDbEntity
  8
0
  6
Continuous
 62
     7
100
AcDbLine
 10
8.646845826100002
 20
1.4345883883
 30
0.0
 11
8.646845826100002
 21
1.0121474434
 31
0.0
  0
ARC
  5
16A
330
1F
100
AcDbEntity
  8
0
  6
Continuous
 62
     7
100
AcDbCircle
 10
8.6718458261
 20
1.0121474434
 30
0.0
 40
0.0249999999999986
100
AcDbArc
 50
180.0
 51
270.0
  0
LINE
  5
16B
330
1F
100
AcDbEntity
  8
0
  6
Continuous
 62
     7
100
AcDbLine
 10
8.6718458261
 20
0.9871474434
 30
0.0
 11
9.606097794600002
 21
0.9871474434
 31
0.0
  0
ARC
  5
16C
330
1F
100
AcDbEntity
  8
0
  6
Continuous
 62
     7
100
AcDbCircle
 10
9.606097794600002
 20
1.0121474434
 30
0.0
 40
0.0250000000000004
100
AcDbArc
 50
270.0
 51
360.0
  0
LINE
  5
16D
330
1F
100
AcDbEntity
  8
0
  6
Continuous
 62
     7
100
AcDbLine
 10
9.6310977946
 20
1.0121474434
 30
0.0
 11
9.6310977946
 21
1.4345883883
 31
0.0
  0
ARC
  5
16E
330
1F
100
AcDbEntity
  8
0
  6
Continuous
 62
     7
100
AcDbCircle
 10
9.606097794600002
 20
1.4345883883
 30
0.0
 40
0.0249999999999986
100
AcDbArc
 50
0.0
 51
90.0
  0
LINE
  5
16F
330
1F
100
AcDbEntity
  8
0
  6
Continuous
 62
     7
100
AcDbLine
 10
6.1510977946
 20
1.4595883883
 30
0.0
 11
5.2168458261
 21
1.4595883883
 31
0.0
  0
ARC
  5
170
330
1F
100
AcDbEntity
  8
0
  6
Continuous
 62
     7
100
AcDbCircle
 10
5.2168458261
 20
1.4345883883
 30
0.0
 40
0.0250000000000004
100
AcDbArc
 50
90.0
 51
180.0
  0
LINE
  5
171
330
1F
100
AcDbEntity
  8
0
  6
Continuous
 62
     7
100
AcDbLine
 10
5.1918458261
 20
1.4345883883
 30
0.0
 11
5.1918458261
 21
1.0121474434
 31
0.0
  0
ARC
  5
172
330
1F
100
AcDbEntity
  8
0
  6
Continuous
 62
     7
100
AcDbCircle
 10
5.2168458261
 20
1.0121474434
 30
0.0
 40
0.0250000000000004
100
AcDbArc
 50
180.0
 51
270.0
  0
LINE
  5
173
330
1F
100
AcDbEntity
  8
0
  6
Continuous
 62
     7
100
AcDbLine
 10
5.2168458261
 20
0.9871474434
 30
0.0
 11
6.1510977946
 21
0.9871474434
 31
0.0
  0
ARC
  5
174
330
1F
100
AcDbEntity
  8
0
  6
Continuous
 62
     7
100
AcDbCircle
 10
6.1510977946
 20
1.0121474434
 30
0.0
 40
0.0250000000000004
100
AcDbArc
 50
270.0
 51
360.0
  0
LINE
  5
175
330
1F
100
AcDbEntity
  8
0
  6
Continuous
 62
     7
100
AcDbLine
 10
6.1760977946
 20
1.0121474434
 30
0.0
 11
6.1760977946
 21
1.4345883883
 31
0.0
  0
ARC
  5
176
330
1F
100
AcDbEntity
  8
0
  6
Continuous
 62
     7
100
AcDbCircle
 10
6.1510977946
 20
1.4345883883
 30
0.0
 40
0.0250000000000004
100
AcDbArc
 50
0.0
 51
90.0
  0
LINE
  5
51F
330
1F
100
AcDbEntity
  8
0
  6
Continuous
370
     0
100
AcDbLine
 10
0.0
 20
0.0
 30
0.0
 11
0.0
 21
0.0
 31
0.0
  0
CIRCLE
  5
521
330
1F
100
AcDbEntity
  8
0
  6
Continuous
370
     0
100
AcDbCircle
 10
0.8880000000000001
 20
4.882
 30
0.0
 40
0.088
  0
CIRCLE
  5
522
330
1F
100
AcDbEntity
  8
0
  6
Continuous
370
     0
100
AcDbCircle
 10
15.862
 20
4.882
 30
0.0
 40
0.088
  0
CIRCLE
  5
523
330
1F
100
AcDbEntity
  8
0
  6
Continuous
370
     0
100
AcDbCircle
 10
15.5625
 20
1.5
 30
0.0
 40
0.19
  0
CIRCLE
  5
524
330
1F
100
AcDbEntity
  8
0
  6
Continuous
370
     0
100
AcDbCircle
 10
0.7060000000000002
 20
0.161
 30
0.0
 40
0.037
  0
CIRCLE
  5
525
330
1F
100
AcDbEntity
  8
0
  6
Continuous
370
     0
100
AcDbCircle
 10
1.1
 20
0.161
 30
0.0
 40
0.037
  0
CIRCLE
  5
526
330
1F
100
AcDbEntity
  8
0
  6
Continuous
370
     0
100
AcDbCircle
 10
0.9080000000000003
 20
0.161
 30
0.0
 40
0.055
  0
CIRCLE
  5
527
330
1F
100
AcDbEntity
  8
0
  6
Continuous
370
     0
100
AcDbCircle
 10
16.044
 20
0.161
 30
0.0
 40
0.037
  0
CIRCLE
  5
528
330
1F
100
AcDbEntity
  8
0
  6
Continuous
370
     0
100
AcDbCircle
 10
15.64
 20
0.161
 30
0.0
 40
0.037
  0
CIRCLE
  5
529
330
1F
100
AcDbEntity
  8
0
  6
Continuous
370
     0
100
AcDbCircle
 10
15.842
 20
0.161
 30
0.0
 40
0.055
  0
LINE
  5
55A
330
1F
100
AcDbEntity
  8
0
  6
Continuous
370
     0
100
AcDbLine
 10
0.0
 20
0.35
 30
0.0
 11
0.625
 21
0.35
 31
0.0
  0
LINE
  5
55B
330
1F
100
AcDbEntity
  8
0
  6
Continuous
370
     0
100
AcDbLine
 10
0.625
 20
0.35
 30
0.0
 11
0.625
 21
0.0
 31
0.0
  0
LINE
  5
55C
330
1F
100
AcDbEntity
  8
0
  6
Continuous
370
     0
100
AcDbLine
 10
16.125
 20
0.0
 30
0.0
 11
16.125
 21
0.35
 31
0.0
  0
LINE
  5
55D
330
1F
100
AcDbEntity
  8
0
  6
Continuous
370
     0
100
AcDbLine
 10
16.125
 20
0.35
 30
0.0
 11
16.75
 21
0.35
 31
0.0
  0
LINE
  5
561
330
1F
100
AcDbEntity
  8
0
  6
Continuous
370
     0
100
AcDbLine
 10
0.0
 20
0.35
 30
0.0
 11
0.0
 21
5.0
 31
0.0
  0
LINE
  5
562
330
1F
100
AcDbEntity
  8
0
  6
Continuous
370
     0
100
AcDbLine
 10
0.0
 20
5.0
 30
0.0
 11
16.75
 21
5.0
 31
0.0
  0
LINE
  5
563
330
1F
100
AcDbEntity
  8
0
  6
Continuous
370
     0
100
AcDbLine
 10
16.75
 20
5.0
 30
0.0
 11
16.75
 21
0.35
 31
0.0
  0
LINE
  5
564
330
1F
100
AcDbEntity
  8
0
  6
Continuous
370
     0
100
AcDbLine
 10
0.625
 20
0.0
 30
0.0
 11
16.125
 21
0.0
 31
0.0
  0
CIRCLE
  5
5DE
330
1F
100
AcDbEntity
  8
0
  6
Continuous
370
     0
100
AcDbCircle
 10
0.3100000000000001
 20
3.96
 30
0.0
 40
0.09
  0
CIRCLE
  5
5DF
330
1F
100
AcDbEntity
  8
0
  6
Continuous
370
     0
100
AcDbCircle
 10
0.3100000000000001
 20
3.667
 30
0.0
 40
0.09
  0
CIRCLE
  5
5E0
330
1F
100
AcDbEntity
  8
0
  6
Continuous
370
     0
100
AcDbCircle
 10
0.3100000000000001
 20
3.374
 30
0.0
 40
0.09
  0
CIRCLE
  5
5E1
330
1F
100
AcDbEntity
  8
0
  6
Continuous
370
     0
100
AcDbCircle
 10
0.3100000000000001
 20
3.081
 30
0.0
 40
0.09
  0
CIRCLE
  5
5E2
330
1F
100
AcDbEntity
  8
0
  6
Continuous
370
     0
100
AcDbCircle
 10
0.3100000000000001
 20
2.788
 30
0.0
 40
0.09
  0
CIRCLE
  5
5E3
330
1F
100
AcDbEntity
  8
0
  6
Continuous
370
     0
100
AcDbCircle
 10
0.3100000000000001
 20
2.495
 30
0.0
 40
0.09
  0
CIRCLE
  5
5E4
330
1F
100
AcDbEntity
  8
0
  6
Continuous
370
     0
100
AcDbCircle
 10
0.3100000000000001
 20
2.202
 30
0.0
 40
0.09
  0
CIRCLE
  5
5E5
330
1F
100
AcDbEntity
  8
0
  6
Continuous
370
     0
100
AcDbCircle
 10
0.3100000000000001
 20
1.909
 30
0.0
 40
0.09
  0
CIRCLE
  5
5E6
330
1F
100
AcDbEntity
  8
0
  6
Continuous
370
     0
100
AcDbCircle
 10
0.3100000000000001
 20
1.616
 30
0.0
 40
0.09
  0
CIRCLE
  5
5E7
330
1F
100
AcDbEntity
  8
0
  6
Continuous
370
     0
100
AcDbCircle
 10
0.3100000000000001
 20
1.323
 30
0.0
 40
0.09
  0
CIRCLE
  5
5E8
330
1F
100
AcDbEntity
  8
0
  6
Continuous
370
     0
100
AcDbCircle
 10
0.3100000000000001
 20
1.03
 30
0.0
 40
0.09
  0
CIRCLE
  5
5FF
330
1F
100
AcDbEntity
  8
0
  6
Continuous
370
     0
100
AcDbCircle
 10
0.5650000000000002
 20
4.1065
 30
0.0
 40
0.09
  0
CIRCLE
  5
600
330
1F
100
AcDbEntity
  8
0
  6
Continuous
370
     0
100
AcDbCircle
 10
0.5650000000000002
 20
3.8135
 30
0.0
 40
0.09
  0
CIRCLE
  5
601
330
1F
100
AcDbEntity
  8
0
  6
Continuous
370
     0
100
AcDbCircle
 10
0.5650000000000002
 20
3.5205
 30
0.0
 40
0.09
  0
CIRCLE
  5
602
330
1F
100
AcDbEntity
  8
0
  6
Continuous
370
     0
100
AcDbCircle
 10
0.5650000000000002
 20
3.2275
 30
0.0
 40
0.09
  0
CIRCLE
  5
603
330
1F
100
AcDbEntity
  8
0
  6
Continuous
370
     0
100
AcDbCircle
 10
0.5650000000000002
 20
2.9345
 30
0.0
 40
0.09
  0
CIRCLE
  5
604
330
1F
100
AcDbEntity
  8
0
  6
Continuous
370
     0
100
AcDbCircle
 10
0.5650000000000002
 20
2.6415
 30
0.0
 40
0.09
  0
CIRCLE
  5
605
330
1F
100
AcDbEntity
  8
0
  6
Continuous
370
     0
100
AcDbCircle
 10
0.5650000000000002
 20
2.3485
 30
0.0
 40
0.09
  0
CIRCLE
  5
606
330
1F
100
AcDbEntity
  8
0
  6
Continuous
370
     0
100
AcDbCircle
 10
0.5650000000000002
 20
2.0555
 30
0.0
 40
0.09
  0
CIRCLE
  5
607
330
1F
100
AcDbEntity
  8
0
  6
Continuous
370
     0
100
AcDbCircle
 10
0.5650000000000002
 20
1.7625
 30
0.0
 40
0.09
  0
CIRCLE
  5
608
330
1F
100
AcDbEntity
  8
0
  6
Continuous
370
     0
100
AcDbCircle
 10
0.5650000000000002
 20
1.4695
 30
0.0
 40
0.09
  0
CIRCLE
  5
609
330
1F
100
AcDbEntity
  8
0
  6
Continuous
370
     0
100
AcDbCircle
 10
0.5650000000000002
 20
1.1765
 30
0.0
 40
0.09
  0
CIRCLE
  5
60A
330
1F
100
AcDbEntity
  8
0
  6
Continuous
370
     0
100
AcDbCircle
 10
0.8200000000000002
 20
3.96
 30
0.0
 40
0.09
  0
CIRCLE
  5
60B
330
1F
100
AcDbEntity
  8
0
  6
Continuous
370
     0
100
AcDbCircle
 10
0.8200000000000002
 20
3.667
 30
0.0
 40
0.09
  0
CIRCLE
  5
60C
330
1F
100
AcDbEntity
  8
0
  6
Continuous
370
     0
100
AcDbCircle
 10
0.8200000000000002
 20
3.374
 30
0.0
 40
0.09
  0
CIRCLE
  5
60D
330
1F
100
AcDbEntity
  8
0
  6
Continuous
370
     0
100
AcDbCircle
 10
0.8200000000000002
 20
3.081
 30
0.0
 40
0.09
  0
CIRCLE
  5
60E
330
1F
100
AcDbEntity
  8
0
  6
Continuous
370
     0
100
AcDbCircle
 10
0.8200000000000002
 20
2.788
 30
0.0
 40
0.09
  0
CIRCLE
  5
60F
330
1F
100
AcDbEntity
  8
0
  6
Continuous
370
     0
100
AcDbCircle
 10
0.8200000000000002
 20
2.495
 30
0.0
 40
0.09
  0
CIRCLE
  5
610
330
1F
100
AcDbEntity
  8
0
  6
Continuous
370
     0
100
AcDbCircle
 10
0.8200000000000002
 20
2.202
 30
0.0
 40
0.09
  0
CIRCLE
  5
611
330
1F
100
AcDbEntity
  8
0
  6
Continuous
370
     0
100
AcDbCircle
 10
0.8200000000000002
 20
1.909
 30
0.0
 40
0.09
  0
CIRCLE
  5
612
330
1F
100
AcDbEntity
  8
0
  6
Continuous
370
     0
100
AcDbCircle
 10
0.8200000000000002
 20
1.616
 30
0.0
 40
0.09
  0
CIRCLE
  5
613
330
1F
100
AcDbEntity
  8
0
  6
Continuous
370
     0
100
AcDbCircle
 10
0.8200000000000002
 20
1.323
 30
0.0
 40
0.09
  0
CIRCLE
  5
614
330
1F
100
AcDbEntity
  8
0
  6
Continuous
370
     0
100
AcDbCircle
 10
0.8200000000000002
 20
1.03
 30
0.0
 40
0.09
  0
CIRCLE
  5
615
330
1F
100
AcDbEntity
  8
0
  6
Continuous
370
     0
100
AcDbCircle
 10
0.5650000000000002
 20
0.8835000000000001
 30
0.0
 40
0.09
  0
ENDSEC
  0
SECTION
  2
OBJECTS
  0
DICTIONARY
  5
C
330
0
100
AcDbDictionary
281
     1
  3
ACAD_COLOR
350
6C
  3
ACAD_GROUP
350
D
  3
ACAD_LAYOUT
350
1A
  3
ACAD_MATERIAL
350
6B
  3
ACAD_MLINESTYLE
350
17
  3
ACAD_PLOTSETTINGS
350
19
  3
ACAD_PLOTSTYLENAME
350
E
  3
ACAD_TABLESTYLE
350
92
  3
ACAD_WIPEOUT_VARS
350
61C
  3
AcDbVariableDictionary
350
59
  0
DICTIONARY
  5
6C
102
{ACAD_REACTORS
330
C
102
}
330
C
100
AcDbDictionary
281
     1
  0
DICTIONARY
  5
D
102
{ACAD_REACTORS
330
C
102
}
330
C
100
AcDbDictionary
281
     1
  0
DICTIONARY
  5
1A
102
{ACAD_REACTORS
330
C
102
}
330
C
100
AcDbDictionary
281
     1
  3
Layout1
350
74
  3
Model
350
22
  0
DICTIONARY
  5
6B
102
{ACAD_REACTORS
330
C
102
}
330
C
100
AcDbDictionary
281
     1
  0
DICTIONARY
  5
17
102
{ACAD_REACTORS
330
C
102
}
330
C
100
AcDbDictionary
281
     1
  3
Standard
350
18
  0
DICTIONARY
  5
19
102
{ACAD_REACTORS
330
C
102
}
330
C
100
AcDbDictionary
281
     1
  0
ACDBDICTIONARYWDFLT
  5
E
102
{ACAD_REACTORS
330
C
102
}
330
C
100
AcDbDictionary
281
     1
  3
Normal
350
F
100
AcDbDictionaryWithDefault
340
F
  0
DICTIONARY
  5
92
102
{ACAD_REACTORS
330
C
102
}
330
C
100
AcDbDictionary
281
     1
  3
Standard
350
93
  0
WIPEOUTVARIABLES
  5
61C
102
{ACAD_REACTORS
330
C
102
}
330
C
100
AcDbWipeoutVariables
 70
     1
  0
DICTIONARY
  5
59
102
{ACAD_REACTORS
330
C
102
}
330
C
100
AcDbDictionary
281
     1
  3
CTABLESTYLE
350
98
  3
HIDETEXT
350
5DC
  0
LAYOUT
  5
74
102
{ACAD_REACTORS
330
1A
102
}
330
1A
100
AcDbPlotSettings
  1

  2
None
  4

  6

 40
0.0
 41
0.0
 42
0.0
 43
0.0
 44
0.0
 45
0.0
 46
0.0
 47
0.0
 48
0.0
 49
0.0
140
0.0
141
0.0
142
1.0
143
1.0
 70
   688
 72
     0
 73
     0
 74
     0
  7

 75
     0
 76
     0
 77
     2
 78
   300
147
1.0
148
0.0
149
0.0
100
AcDbLayout
  1
Layout1
 70
     1
 71
     0
 10
0.0
 20
0.0
 11
0.0
 21
0.0
 12
0.0
 22
0.0
 32
0.0
 14
0.0
 24
0.0
 34
0.0
 15
0.0
 25
0.0
 35
0.0
146
0.0
 13
0.0
 23
0.0
 33
0.0
 16
1.0
 26
0.0
 36
0.0
 17
0.0
 27
1.0
 37
0.0
 76
     0
330
73
  0
LAYOUT
  5
22
102
{ACAD_REACTORS
330
1A
102
}
330
1A
100
AcDbPlotSettings
  1

  2
None
  4

  6

 40
0.0
 41
0.0
 42
0.0
 43
0.0
 44
0.0
 45
0.0
 46
0.0
 47
0.0
 48
0.0
 49
0.0
140
0.0
141
0.0
142
1.0
143
1.0
 70
 11952
 72
     0
 73
     0
 74
     0
  7

 75
     0
 76
     0
 77
     2
 78
   300
147
1.0
148
0.0
149
0.0
100
AcDbLayout
  1
Model
 70
     1
 71
     0
 10
0.0
 20
0.0
 11
0.0
 21
0.0
 12
0.0
 22
0.0
 32
0.0
 14
0.0
 24
0.0
 34
0.0
 15
16.75
 25
5.755000000000019
 35
0.0
146
0.0
 13
0.0
 23
0.0
 33
0.0
 16
1.0
 26
0.0
 36
0.0
 17
0.0
 27
1.0
 37
0.0
 76
     0
330
1F
  0
MLINESTYLE
  5
18
102
{ACAD_REACTORS
330
17
102
}
330
17
100
AcDbMlineStyle
  2
Standard
 70
     0
  3

 62
     0
 51
90.0
 52
90.0
 71
     2
 49
0.5
 62
   256
  6
BYLAYER
 49
-0.5
 62
   256
  6
BYLAYER
  0
ACDBPLACEHOLDER
  5
F
102
{ACAD_REACTORS
330
E
102
}
330
E
  0
TABLESTYLE
  5
93
102
{ACAD_REACTORS
330
92
102
}
330
92
100
AcDbTableStyle
  3
Standard
 70
     0
 71
     0
 40
0.06
 41
0.06
280
     0
281
     0
  7
Standard
140
0.18
170
     2
 62
     0
 63
     7
283
     0
274
    -2
284
     1
 64
     0
275
    -2
285
     1
 65
     0
276
    -2
286
     1
 66
     0
277
    -2
287
     1
 67
     0
278
    -2
288
     1
 68
     0
279
    -2
289
     1
 69
     0
  7
Standard
140
0.25
170
     5
 62
     0
 63
     7
283
     0
274
    -2
284
     1
 64
     0
275
    -2
285
     1
 65
     0
276
    -2
286
     1
 66
     0
277
    -2
287
     1
 67
     0
278
    -2
288
     1
 68
     0
279
    -2
289
     1
 69
     0
  7
Standard
140
0.18
170
     5
 62
     0
 63
     7
283
     0
274
    -2
284
     1
 64
     0
275
    -2
285
     1
 65
     0
276
    -2
286
     1
 66
     0
277
    -2
287
     1
 67
     0
278
    -2
288
     1
 68
     0
279
    -2
289
     1
 69
     0
  0
DICTIONARYVAR
  5
98
102
{ACAD_REACTORS
330
59
102
}
330
59
100
DictionaryVariables
280
     0
  1
STANDARD
  0
DICTIONARYVAR
  5
5DC
102
{ACAD_REACTORS
330
59
102
}
330
59
100
DictionaryVariables
280
     0
  1
2
  0
ENDSEC
  0
EOF
